<?xml version="1.0" encoding="utf-8"?>
<!-- Generator: Adobe Illustrator 26.0.1, SVG Export Plug-In . SVG Version: 6.00 Build 0)  -->
<svg version="1.1" id="Layer_1" xmlns="http://www.w3.org/2000/svg" xmlns:xlink="http://www.w3.org/1999/xlink" x="0px" y="0px"
	 viewBox="0 0 181 181" style="enable-background:new 0 0 181 181;" xml:space="preserve">
<style type="text/css">
	.st0{fill-rule:evenodd;clip-rule:evenodd;fill:#FFFFFF;}
	.st1{fill:#008B99;}
	.st2{fill:none;stroke:#008B99;stroke-miterlimit:10;}
	.st3{fill-rule:evenodd;clip-rule:evenodd;fill:#008B99;}
	.st4{fill-rule:evenodd;clip-rule:evenodd;fill:#FCAC6A;}
	.st5{fill-rule:evenodd;clip-rule:evenodd;fill:#FBDFAF;}
	.st6{fill:#FFFFFF;}
	.st7{fill:#FD3517;}
	.st8{fill-rule:evenodd;clip-rule:evenodd;fill:#FD3517;}
</style>
<g>
	<path class="st0" d="M90.5,40.2c-27.8,0-50.3,22.5-50.3,50.3c0,27.8,22.5,50.3,50.3,50.3s50.3-22.5,50.3-50.3
		C140.8,62.7,118.3,40.2,90.5,40.2 M90.5,137C64.8,137,44,116.2,44,90.5C44,64.8,64.8,44,90.5,44S137,64.8,137,90.5
		C137,116.2,116.2,137,90.5,137"/>
	<path class="st1" d="M105.3,8.5l0.9-4.5l0.9,0.2c0.7,0.1,1.1,0.3,1.4,0.5c0.4,0.2,0.7,0.6,0.9,1c0.2,0.4,0.2,0.9,0.1,1.4
		c-0.1,0.4-0.3,0.8-0.5,1.1c-0.3,0.3-0.6,0.5-0.9,0.6c-0.3,0.1-0.8,0.1-1.3,0L105.3,8.5z M105.8,8.2l0.5,0.1
		c0.6,0.1,1.1,0.2,1.3,0.1c0.4,0,0.7-0.2,0.9-0.4c0.2-0.2,0.4-0.6,0.5-1c0.1-0.4,0.1-0.8-0.1-1.2c-0.1-0.3-0.4-0.6-0.7-0.8
		c-0.3-0.1-0.7-0.3-1.4-0.4l-0.3-0.1L105.8,8.2z"/>
	<path class="st1" d="M115.6,9.9l0.3,0.3c-0.2,0.2-0.4,0.3-0.6,0.4c-0.2,0.1-0.4,0.1-0.6,0.2c-0.2,0-0.4,0-0.7-0.1
		c-0.5-0.2-0.9-0.4-1.1-0.9c-0.2-0.4-0.2-0.9-0.1-1.3c0.1-0.4,0.4-0.7,0.7-1c0.4-0.3,0.9-0.4,1.5-0.2c0.5,0.2,0.9,0.5,1.1,1
		c0.1,0.4,0.2,0.8,0,1.2l-2.9-0.9c-0.1,0.4-0.1,0.7,0.1,1c0.2,0.3,0.4,0.5,0.8,0.6c0.2,0,0.3,0.1,0.5,0.1c0.2,0,0.3,0,0.5-0.1
		C115.2,10.2,115.4,10.1,115.6,9.9 M115.8,9c0-0.2,0-0.4-0.1-0.6c-0.1-0.2-0.2-0.3-0.3-0.4c-0.2-0.1-0.3-0.2-0.5-0.3
		c-0.3-0.1-0.6-0.1-0.9,0.1c-0.2,0.1-0.4,0.3-0.6,0.6L115.8,9z"/>
	<path class="st1" d="M125.3,9.9l0.8,0.4c0.5,0.2,0.8,0.4,0.9,0.5c0.2,0.2,0.3,0.4,0.4,0.6c0.1,0.2,0,0.5-0.1,0.8
		c-0.1,0.3-0.3,0.5-0.5,0.6c-0.2,0.1-0.5,0.1-0.8,0.1c-0.2,0-0.6-0.2-1.1-0.4l-0.3-0.1l-0.9,1.9l-0.4-0.2L125.3,9.9z M125.6,10.5
		l-0.6,1.4l0.7,0.3c0.3,0.1,0.5,0.2,0.7,0.2c0.2,0,0.3,0,0.4-0.1c0.1-0.1,0.2-0.2,0.3-0.3c0.1-0.1,0.1-0.3,0.1-0.4
		c0-0.1-0.1-0.3-0.2-0.4c-0.1-0.1-0.3-0.2-0.6-0.3L125.6,10.5z"/>
	<path class="st1" d="M131.6,12.8L132,13l-0.9,1.7c0.3-0.1,0.5-0.2,0.8-0.2c0.2,0,0.5,0.1,0.7,0.2c0.2,0.1,0.4,0.3,0.5,0.5
		c0.1,0.2,0.2,0.4,0.1,0.7c0,0.2-0.1,0.6-0.4,1l-0.8,1.5l-0.4-0.2l0.8-1.4c0.2-0.3,0.3-0.6,0.3-0.7c0.1-0.2,0.1-0.4,0-0.6
		c-0.1-0.2-0.2-0.3-0.4-0.4c-0.2-0.1-0.5-0.2-0.7-0.1c-0.3,0.1-0.5,0.2-0.7,0.4c-0.1,0.1-0.3,0.4-0.5,0.8l-0.6,1.1l-0.4-0.2
		L131.6,12.8z"/>
	<path class="st1" d="M136.9,17.3l0.4,0.2l-1.8,2.8l-0.4-0.2L136.9,17.3z M137.8,16.3c0.1,0.1,0.1,0.1,0.2,0.2c0,0.1,0,0.2,0,0.3
		c-0.1,0.1-0.1,0.1-0.2,0.2c-0.1,0-0.2,0-0.3,0c-0.1-0.1-0.1-0.1-0.2-0.2c0-0.1,0-0.2,0-0.3c0.1-0.1,0.1-0.1,0.2-0.2
		C137.6,16.2,137.7,16.2,137.8,16.3"/>
	<rect x="137.7" y="20.5" transform="matrix(0.5763 -0.8172 0.8172 0.5763 42.43 123.2097)" class="st1" width="4.7" height="0.4"/>
	<path class="st1" d="M143.9,22.3l0.3,0.3l-2.1,2.7l-0.3-0.3L143.9,22.3z M144.9,21.3c0.1,0.1,0.1,0.1,0.1,0.2c0,0.1,0,0.2-0.1,0.3
		c-0.1,0.1-0.1,0.1-0.2,0.1c-0.1,0-0.2,0-0.3-0.1c-0.1-0.1-0.1-0.1-0.1-0.2c0-0.1,0-0.2,0.1-0.3c0.1-0.1,0.1-0.1,0.2-0.1
		C144.8,21.2,144.9,21.2,144.9,21.3"/>
	<path class="st1" d="M147.3,25.1l0.3,0.3l-0.4,0.5c0.3-0.1,0.5-0.1,0.8,0c0.2,0.1,0.5,0.2,0.7,0.4c0.4,0.3,0.5,0.7,0.6,1.2
		c0,0.5-0.1,0.9-0.5,1.3c-0.3,0.4-0.7,0.6-1.2,0.6c-0.5,0-0.9-0.1-1.3-0.4c-0.2-0.2-0.3-0.4-0.4-0.6c-0.1-0.2-0.1-0.5-0.1-0.8
		l-1.2,1.3l-0.3-0.3L147.3,25.1z M148.4,26.5c-0.3-0.2-0.6-0.4-1-0.3c-0.4,0-0.7,0.2-0.9,0.5c-0.2,0.2-0.3,0.4-0.3,0.6
		c-0.1,0.2,0,0.5,0,0.7c0.1,0.2,0.2,0.4,0.4,0.6c0.2,0.2,0.4,0.3,0.6,0.3c0.2,0,0.5,0,0.7,0c0.2-0.1,0.4-0.2,0.6-0.4
		c0.2-0.2,0.3-0.4,0.3-0.6c0.1-0.2,0-0.5,0-0.7C148.7,26.8,148.6,26.6,148.4,26.5"/>
	<path class="st1" d="M156.9,33l0.6,0.7c0.2,0.3,0.4,0.5,0.4,0.7c0.1,0.2,0.1,0.4,0,0.6c-0.1,0.2-0.2,0.4-0.3,0.5
		c-0.2,0.1-0.3,0.2-0.5,0.2c-0.2,0-0.4,0-0.6-0.1c0.1,0.2,0.1,0.4,0.1,0.6c0,0.2,0,0.3-0.1,0.5c-0.1,0.2-0.2,0.3-0.3,0.4
		c-0.3,0.2-0.6,0.3-1,0.3c-0.4,0-0.7-0.2-1-0.6l-0.8-1L156.9,33z M155.4,34.8l-1.3,1.1l0.4,0.4c0.2,0.3,0.4,0.4,0.5,0.5
		c0.1,0.1,0.3,0.1,0.5,0.1c0.2,0,0.3-0.1,0.4-0.2c0.2-0.1,0.2-0.3,0.3-0.5c0-0.2,0-0.4-0.1-0.6c-0.1-0.1-0.2-0.4-0.5-0.7L155.4,34.8
		z M156.9,33.6l-1.1,0.9l0.2,0.2c0.2,0.2,0.4,0.4,0.5,0.5c0.1,0.1,0.3,0.1,0.4,0.1c0.2,0,0.3-0.1,0.4-0.2c0.2-0.1,0.2-0.3,0.2-0.5
		c0-0.2-0.1-0.4-0.3-0.6L156.9,33.6z"/>
	
		<rect x="157.1" y="39.4" transform="matrix(0.8035 -0.5953 0.5953 0.8035 7.7202 102.6745)" class="st1" width="4.7" height="0.4"/>
	<path class="st1" d="M163.6,43.7c0.3,0.4,0.4,0.9,0.2,1.4c-0.1,0.4-0.4,0.8-0.8,1c-0.4,0.3-0.8,0.3-1.3,0.3s-0.8-0.3-1.1-0.8
		c-0.3-0.4-0.4-0.9-0.2-1.4c0.1-0.5,0.4-0.8,0.8-1.1c0.4-0.3,0.8-0.3,1.3-0.3C162.9,43,163.3,43.3,163.6,43.7 M163.2,44
		c-0.2-0.3-0.5-0.5-0.8-0.6c-0.4-0.1-0.7,0-1,0.2c-0.2,0.1-0.4,0.3-0.5,0.5c-0.1,0.2-0.2,0.4-0.2,0.7c0,0.2,0.1,0.4,0.2,0.6
		c0.1,0.2,0.3,0.4,0.5,0.5c0.2,0.1,0.4,0.2,0.7,0.1c0.2,0,0.5-0.1,0.7-0.2c0.3-0.2,0.5-0.5,0.6-0.8C163.5,44.6,163.4,44.3,163.2,44"
		/>
	<path class="st1" d="M165.7,52.2l0,0.4c-0.3,0-0.5,0-0.7-0.1c-0.2-0.1-0.4-0.2-0.5-0.3c-0.2-0.1-0.3-0.3-0.4-0.5
		c-0.3-0.5-0.3-0.9-0.1-1.4c0.2-0.4,0.5-0.8,0.9-1c0.4-0.2,0.8-0.3,1.2-0.2c0.5,0.1,0.9,0.4,1.2,0.9c0.3,0.5,0.3,1,0.1,1.5
		c-0.2,0.4-0.4,0.6-0.8,0.9l-1.4-2.7c-0.3,0.2-0.6,0.5-0.7,0.8c-0.1,0.3-0.1,0.7,0.1,1c0.1,0.2,0.2,0.3,0.3,0.4
		c0.1,0.1,0.3,0.2,0.4,0.3C165.3,52.1,165.5,52.2,165.7,52.2 M166.6,51.8c0.2-0.2,0.3-0.3,0.4-0.5c0.1-0.2,0.1-0.3,0.1-0.5
		c0-0.2-0.1-0.4-0.2-0.6c-0.2-0.3-0.4-0.5-0.7-0.6c-0.2-0.1-0.5-0.1-0.8,0L166.6,51.8z"/>
	<path class="st1" d="M169.7,55.1l0.2,0.4l-0.5,0.2c0.3,0.1,0.5,0.1,0.6,0.2c0.2,0.2,0.4,0.3,0.4,0.6c0.1,0.2,0.1,0.3,0.1,0.5
		c0,0.2,0,0.3-0.1,0.4c-0.1,0.1-0.2,0.3-0.3,0.4c0.3,0,0.6,0.1,0.8,0.3c0.2,0.1,0.4,0.3,0.5,0.6c0.1,0.2,0.1,0.4,0.1,0.6
		c0,0.2-0.1,0.4-0.3,0.6c-0.2,0.2-0.4,0.3-0.8,0.5l-1.7,0.7l-0.2-0.4l1.7-0.7c0.3-0.1,0.6-0.3,0.7-0.4c0.1-0.1,0.2-0.2,0.2-0.4
		c0-0.1,0-0.3-0.1-0.5c-0.1-0.2-0.2-0.3-0.4-0.5c-0.2-0.1-0.4-0.2-0.6-0.2c-0.2,0-0.6,0.1-1,0.3l-1.2,0.5l-0.2-0.4l1.6-0.7
		c0.4-0.2,0.6-0.3,0.7-0.4c0.1-0.1,0.2-0.2,0.2-0.4c0-0.1,0-0.3,0-0.5c-0.1-0.2-0.2-0.3-0.4-0.4c-0.2-0.1-0.4-0.2-0.6-0.2
		c-0.2,0-0.5,0.1-0.9,0.2l-1.3,0.5l-0.2-0.4L169.7,55.1z"/>
	<path class="st1" d="M171.6,67l-0.1,0.4c-0.3,0-0.5-0.1-0.7-0.2c-0.2-0.1-0.3-0.2-0.5-0.4c-0.1-0.2-0.2-0.4-0.3-0.6
		c-0.2-0.5-0.1-1,0.1-1.4c0.3-0.4,0.6-0.7,1-0.8c0.4-0.1,0.8-0.1,1.2,0c0.5,0.2,0.8,0.6,1,1.1c0.2,0.5,0.1,1.1-0.2,1.5
		c-0.2,0.3-0.6,0.6-1,0.7l-0.9-2.9c-0.4,0.1-0.6,0.3-0.8,0.6c-0.2,0.3-0.2,0.6-0.1,1c0,0.2,0.1,0.3,0.2,0.5c0.1,0.1,0.2,0.2,0.3,0.3
		C171.2,66.8,171.4,66.9,171.6,67 M172.5,66.7c0.2-0.1,0.4-0.3,0.5-0.4c0.1-0.1,0.2-0.3,0.2-0.5c0-0.2,0-0.4,0-0.6
		c-0.1-0.3-0.3-0.6-0.6-0.7c-0.2-0.1-0.5-0.2-0.8-0.2L172.5,66.7z"/>
	<path class="st1" d="M174.9,70.5l0.1,0.4l-0.6,0.1c0.3,0.1,0.5,0.3,0.6,0.4c0.2,0.2,0.3,0.4,0.3,0.6c0.1,0.2,0,0.5,0,0.7
		c-0.1,0.2-0.2,0.4-0.4,0.5c-0.2,0.1-0.5,0.3-1,0.4l-1.7,0.4l-0.1-0.4l1.6-0.3c0.4-0.1,0.6-0.2,0.7-0.2c0.2-0.1,0.3-0.2,0.4-0.4
		c0.1-0.2,0.1-0.4,0-0.6c-0.1-0.3-0.2-0.5-0.4-0.6c-0.2-0.2-0.5-0.3-0.7-0.3c-0.2,0-0.5,0-0.9,0.1l-1.2,0.3l-0.1-0.4L174.9,70.5z"/>
	<path class="st1" d="M178,80.5l-4.6,0.6l-0.1-0.4l0.6-0.1c-0.2-0.2-0.4-0.3-0.6-0.5c-0.1-0.2-0.2-0.4-0.3-0.7
		c-0.1-0.5,0.1-0.9,0.4-1.3c0.3-0.4,0.7-0.6,1.2-0.7c0.5-0.1,0.9,0,1.3,0.3c0.4,0.3,0.6,0.7,0.7,1.1c0,0.3,0,0.5-0.1,0.8
		c-0.1,0.2-0.2,0.5-0.4,0.7l1.9-0.3L178,80.5z M176.1,79c0-0.2-0.1-0.5-0.3-0.6c-0.1-0.2-0.3-0.3-0.6-0.4c-0.2-0.1-0.5-0.1-0.7-0.1
		c-0.2,0-0.5,0.1-0.6,0.3c-0.2,0.1-0.3,0.3-0.4,0.6c-0.1,0.2-0.1,0.4-0.1,0.7c0,0.2,0.1,0.4,0.3,0.6c0.1,0.2,0.3,0.3,0.5,0.4
		c0.2,0.1,0.5,0.1,0.7,0.1c0.4-0.1,0.7-0.2,0.9-0.5C176.1,79.7,176.2,79.4,176.1,79"/>
	<path class="st1" d="M177.2,88.1l-3.4,0.2l0-0.4l0.6,0c-0.2-0.2-0.4-0.4-0.5-0.6c-0.1-0.2-0.2-0.5-0.2-0.7c0-0.5,0.1-0.9,0.5-1.2
		c0.3-0.4,0.7-0.5,1.2-0.6c0.5,0,0.9,0.1,1.3,0.4c0.4,0.3,0.6,0.7,0.6,1.2c0,0.3,0,0.5-0.1,0.8c-0.1,0.2-0.3,0.4-0.5,0.6l0.6,0
		L177.2,88.1z M176.8,86.4c0-0.2-0.1-0.5-0.2-0.7c-0.1-0.2-0.3-0.4-0.5-0.5c-0.2-0.1-0.4-0.2-0.7-0.1c-0.2,0-0.5,0.1-0.7,0.2
		c-0.2,0.1-0.4,0.3-0.5,0.5c-0.1,0.2-0.2,0.4-0.1,0.7c0,0.2,0.1,0.5,0.2,0.7c0.1,0.2,0.3,0.4,0.5,0.5c0.2,0.1,0.4,0.1,0.7,0.1
		c0.4,0,0.7-0.2,1-0.4C176.7,87.1,176.8,86.8,176.8,86.4"/>
	
		<rect x="176" y="89.9" transform="matrix(1.795969e-02 -0.9998 0.9998 1.795969e-02 80.7605 266.7767)" class="st1" width="0.4" height="4.7"/>
	<path class="st1" d="M177.8,101.5l-0.1,0.9c-0.1,0.5-0.1,0.9-0.2,1c-0.1,0.2-0.3,0.4-0.5,0.6c-0.2,0.1-0.5,0.2-0.8,0.1
		c-0.3,0-0.5-0.2-0.7-0.3c-0.2-0.2-0.3-0.4-0.3-0.7c0-0.2,0-0.6,0.1-1.2l0-0.3l-2.1-0.3l0.1-0.4L177.8,101.5z M177.3,101.9l-1.5-0.2
		l-0.1,0.8c0,0.3,0,0.5,0,0.7c0,0.2,0.1,0.3,0.2,0.4c0.1,0.1,0.2,0.2,0.4,0.2c0.2,0,0.3,0,0.4-0.1c0.1-0.1,0.2-0.2,0.3-0.3
		c0.1-0.1,0.1-0.3,0.2-0.6L177.3,101.9z"/>
	<path class="st1" d="M175.5,107.8l-0.1,0.4l-0.5-0.1c0.2,0.2,0.3,0.3,0.3,0.5c0.1,0.2,0.1,0.3,0,0.5c0,0.1-0.1,0.2-0.2,0.4
		l-0.3-0.3c0.1-0.1,0.1-0.2,0.1-0.2c0-0.1,0-0.3-0.1-0.4c-0.1-0.2-0.2-0.3-0.5-0.4c-0.2-0.1-0.5-0.2-1.1-0.3l-1.1-0.2l0.1-0.4
		L175.5,107.8z"/>
	<path class="st1" d="M174.4,112.7l-0.1,0.4l-3.3-0.9l0.1-0.4L174.4,112.7z M175.7,113.3c0,0.1-0.1,0.2-0.2,0.2
		c-0.1,0-0.2,0.1-0.3,0c-0.1,0-0.2-0.1-0.2-0.2c0-0.1-0.1-0.2,0-0.3c0-0.1,0.1-0.2,0.2-0.2c0.1,0,0.2-0.1,0.3,0
		c0.1,0,0.2,0.1,0.2,0.2C175.7,113.1,175.7,113.2,175.7,113.3"/>
	<path class="st1" d="M173.2,116.9l-0.1,0.4l-3.7-1.2c-0.3-0.1-0.4-0.2-0.5-0.3c-0.1-0.1-0.1-0.3-0.1-0.5c0-0.1,0.1-0.3,0.3-0.4
		l0.4,0.1c-0.1,0.1-0.2,0.2-0.2,0.3c0,0.1,0,0.2,0.1,0.3c0,0.1,0.2,0.1,0.4,0.2L173.2,116.9z M174.4,117.5c0,0.1-0.1,0.2-0.2,0.2
		c-0.1,0-0.2,0.1-0.3,0c-0.1,0-0.2-0.1-0.2-0.2c0-0.1-0.1-0.2,0-0.3c0-0.1,0.1-0.2,0.2-0.2c0.1,0,0.2-0.1,0.3,0
		c0.1,0,0.2,0.1,0.2,0.2C174.4,117.3,174.5,117.4,174.4,117.5"/>
	<path class="st1" d="M170.8,122.4l-0.2-0.4c0.3-0.1,0.5-0.3,0.6-0.5c0.1-0.1,0.1-0.3,0-0.4c-0.1-0.1-0.1-0.2-0.2-0.3
		c-0.1,0-0.2,0-0.3,0c-0.1,0-0.3,0.2-0.5,0.4c-0.3,0.2-0.5,0.4-0.7,0.4c-0.2,0-0.4,0-0.6,0c-0.3-0.1-0.4-0.3-0.6-0.5
		c-0.1-0.2-0.1-0.5,0-0.8c0.1-0.2,0.2-0.3,0.3-0.5c0.1-0.1,0.3-0.2,0.5-0.3l0.2,0.4c-0.3,0.1-0.5,0.3-0.6,0.5
		c-0.1,0.2-0.1,0.3,0,0.5c0.1,0.2,0.2,0.3,0.3,0.3c0.1,0,0.2,0,0.4,0c0.1,0,0.3-0.2,0.5-0.4c0.3-0.2,0.5-0.4,0.7-0.4
		c0.2,0,0.4,0,0.5,0c0.2,0.1,0.4,0.3,0.5,0.5c0.1,0.2,0.1,0.5,0,0.7C171.4,122,171.2,122.3,170.8,122.4"/>
	<path class="st1" d="M166.5,131.7l-0.1-0.4c0.3-0.1,0.5-0.3,0.6-0.5c0.1-0.1,0.1-0.3,0-0.4c0-0.1-0.1-0.2-0.2-0.3
		c-0.1,0-0.2-0.1-0.3,0c-0.1,0-0.3,0.1-0.6,0.3c-0.3,0.2-0.5,0.3-0.7,0.4c-0.2,0-0.4,0-0.5-0.1c-0.2-0.1-0.4-0.3-0.5-0.6
		c-0.1-0.3-0.1-0.5,0.1-0.8c0.1-0.2,0.2-0.3,0.4-0.4c0.2-0.1,0.3-0.2,0.5-0.2l0.2,0.4c-0.3,0.1-0.5,0.2-0.7,0.5
		c-0.1,0.2-0.1,0.3-0.1,0.5c0,0.2,0.1,0.3,0.3,0.3c0.1,0.1,0.2,0.1,0.3,0c0.1,0,0.3-0.1,0.6-0.3c0.3-0.2,0.5-0.3,0.7-0.3
		c0.2,0,0.4,0,0.5,0.1c0.2,0.1,0.4,0.3,0.4,0.5c0.1,0.2,0,0.5-0.1,0.7C167.2,131.3,166.9,131.5,166.5,131.7"/>
	<polygon class="st1" points="165.7,136.2 165.5,136.6 164.5,135.9 164.1,136.5 163.8,136.3 164.1,135.7 161.6,134.2 161.8,133.8 
		164.4,135.3 164.7,134.8 165,135 164.7,135.5 	"/>
	<path class="st1" d="M162.1,139.5l-0.2,0.4l-2.8-1.9l0.2-0.4L162.1,139.5z M163.1,140.5c-0.1,0.1-0.1,0.1-0.2,0.1
		c-0.1,0-0.2,0-0.3-0.1c-0.1-0.1-0.1-0.1-0.1-0.2c0-0.1,0-0.2,0.1-0.3c0.1-0.1,0.1-0.1,0.2-0.1c0.1,0,0.2,0,0.3,0.1
		c0.1,0.1,0.1,0.1,0.1,0.2C163.2,140.3,163.2,140.4,163.1,140.5"/>
	<path class="st1" d="M159.6,143.1l-0.3,0.3l-0.5-0.4c0.1,0.3,0.1,0.5,0.1,0.7c0,0.3-0.1,0.5-0.3,0.7c-0.1,0.1-0.2,0.2-0.4,0.3
		c-0.1,0.1-0.3,0.1-0.4,0.1c-0.1,0-0.3,0-0.5-0.1c0.1,0.3,0.2,0.5,0.1,0.8c0,0.3-0.1,0.5-0.3,0.7c-0.1,0.2-0.3,0.3-0.5,0.4
		c-0.2,0.1-0.4,0.1-0.6,0c-0.2-0.1-0.5-0.2-0.8-0.5l-1.4-1.2l0.3-0.3l1.4,1.2c0.3,0.2,0.5,0.4,0.6,0.4c0.1,0,0.3,0,0.4,0
		c0.1,0,0.3-0.1,0.4-0.3c0.1-0.2,0.2-0.4,0.2-0.6c0-0.2,0-0.4-0.1-0.6c-0.1-0.2-0.4-0.4-0.7-0.7l-1-0.8l0.3-0.3l1.3,1.1
		c0.3,0.3,0.5,0.4,0.7,0.5c0.1,0.1,0.3,0.1,0.4,0c0.1,0,0.3-0.1,0.4-0.3c0.1-0.2,0.2-0.3,0.2-0.6c0-0.2,0-0.4-0.1-0.6
		c-0.1-0.2-0.3-0.4-0.7-0.7l-1.1-0.9l0.3-0.3L159.6,143.1z"/>
	<path class="st1" d="M153.7,150l-0.3,0.3l-1.1-1.1c-0.3-0.3-0.5-0.4-0.6-0.5c-0.2-0.1-0.4-0.1-0.6-0.1c-0.2,0-0.4,0.1-0.6,0.3
		c-0.2,0.2-0.3,0.4-0.3,0.6c0,0.2,0,0.4,0.1,0.6c0.1,0.1,0.2,0.3,0.5,0.6l1.1,1.1l-0.3,0.3l-1.2-1.2c-0.3-0.3-0.5-0.6-0.6-0.8
		c-0.1-0.2-0.1-0.5-0.1-0.7c0.1-0.2,0.2-0.5,0.4-0.7c0.2-0.2,0.5-0.4,0.7-0.4c0.2-0.1,0.5-0.1,0.7,0c0.2,0.1,0.5,0.3,0.9,0.6
		L153.7,150z"/>
	
		<rect x="147.7" y="151.9" transform="matrix(0.7427 -0.6696 0.6696 0.7427 -65.2017 138.7354)" class="st1" width="0.4" height="4.7"/>
	<path class="st1" d="M141.8,157.7l-0.4,0.1c-0.1-0.3-0.1-0.5,0-0.7c0-0.2,0.1-0.4,0.2-0.6c0.1-0.2,0.3-0.3,0.5-0.5
		c0.4-0.3,0.9-0.5,1.3-0.4c0.5,0.1,0.8,0.3,1.1,0.7c0.3,0.3,0.4,0.7,0.4,1.1c0,0.5-0.2,1-0.7,1.3c-0.5,0.4-0.9,0.5-1.5,0.3
		c-0.4-0.1-0.7-0.3-1-0.7l2.4-1.9c-0.2-0.3-0.5-0.5-0.9-0.5c-0.3,0-0.7,0-0.9,0.3c-0.1,0.1-0.2,0.2-0.3,0.4
		c-0.1,0.1-0.1,0.3-0.2,0.4C141.8,157.3,141.8,157.5,141.8,157.7 M142.4,158.4c0.2,0.1,0.4,0.2,0.5,0.3c0.2,0,0.4,0,0.6,0
		c0.2,0,0.4-0.1,0.5-0.3c0.3-0.2,0.4-0.5,0.5-0.8c0-0.2,0-0.5-0.1-0.8L142.4,158.4z"/>
	<path class="st1" d="M136.1,161.7l-0.4,0c0-0.3,0-0.5,0-0.7c0.1-0.2,0.1-0.4,0.3-0.6c0.1-0.2,0.3-0.3,0.5-0.5
		c0.5-0.3,0.9-0.4,1.4-0.3c0.5,0.1,0.8,0.4,1.1,0.8c0.2,0.4,0.3,0.7,0.3,1.2c0,0.5-0.3,1-0.8,1.3c-0.5,0.3-1,0.4-1.5,0.2
		c-0.4-0.1-0.7-0.4-0.9-0.8l2.5-1.7c-0.2-0.3-0.5-0.5-0.8-0.6c-0.3-0.1-0.7,0-1,0.2c-0.1,0.1-0.3,0.2-0.4,0.3
		c-0.1,0.1-0.2,0.3-0.2,0.4C136.1,161.3,136.1,161.5,136.1,161.7 M136.6,162.5c0.2,0.2,0.3,0.3,0.5,0.3c0.2,0.1,0.4,0.1,0.5,0
		c0.2,0,0.4-0.1,0.5-0.2c0.3-0.2,0.5-0.4,0.5-0.7c0.1-0.2,0-0.5-0.1-0.8L136.6,162.5z"/>
	<path class="st1" d="M133.7,165.8l-0.4,0.2l-0.2-0.4c0,0.2-0.1,0.4-0.1,0.6c-0.1,0.2-0.2,0.3-0.3,0.3c-0.1,0.1-0.2,0.1-0.4,0.1
		l0-0.4c0.1,0,0.2,0,0.2-0.1c0.1-0.1,0.2-0.2,0.3-0.4c0.1-0.2,0.1-0.4,0-0.6c0-0.2-0.2-0.5-0.5-1.1l-0.6-1l0.4-0.2L133.7,165.8z"/>
	<polygon class="st1" points="129.4,169.5 129.1,169.7 128.5,168.6 127.9,168.9 127.7,168.5 128.3,168.2 127,165.5 127.4,165.3 
		128.7,168 129.3,167.8 129.4,168.1 128.9,168.4 	"/>
	<path class="st1" d="M120.1,172.1l-0.4,0.1l-1.3-3.6c-0.1-0.3-0.1-0.5-0.1-0.6c0.1-0.2,0.2-0.3,0.3-0.3c0.1,0,0.3-0.1,0.5-0.1
		l0.1,0.4c-0.1,0-0.2,0-0.3,0c-0.1,0-0.2,0.1-0.2,0.2c0,0.1,0,0.2,0.1,0.4L120.1,172.1z M120.4,173.5c-0.1,0-0.2,0-0.3,0
		c-0.1,0-0.1-0.1-0.2-0.2c0-0.1,0-0.2,0-0.3c0-0.1,0.1-0.2,0.2-0.2c0.1,0,0.2,0,0.3,0c0.1,0,0.1,0.1,0.2,0.2c0,0.1,0,0.2,0,0.3
		C120.5,173.4,120.5,173.5,120.4,173.5"/>
	<path class="st1" d="M114.4,174c-0.5,0.1-1,0.1-1.4-0.2c-0.4-0.2-0.7-0.6-0.8-1c-0.1-0.5-0.1-0.9,0.1-1.3c0.2-0.4,0.6-0.7,1.1-0.9
		c0.5-0.1,1-0.1,1.4,0.2c0.4,0.2,0.7,0.6,0.8,1c0.1,0.4,0.1,0.9-0.1,1.3C115.3,173.6,114.9,173.9,114.4,174 M114.3,173.6
		c0.3-0.1,0.6-0.3,0.8-0.6c0.2-0.3,0.2-0.7,0.1-1c-0.1-0.2-0.2-0.4-0.4-0.6c-0.2-0.2-0.4-0.3-0.6-0.3c-0.2-0.1-0.5,0-0.7,0
		c-0.2,0.1-0.4,0.2-0.6,0.3c-0.2,0.2-0.3,0.4-0.3,0.6c-0.1,0.2,0,0.5,0,0.7c0.1,0.4,0.3,0.6,0.6,0.8
		C113.7,173.7,114,173.7,114.3,173.6"/>
	<path class="st1" d="M108.9,175.4l-0.4,0.1l-0.1-0.6c-0.1,0.3-0.3,0.5-0.5,0.6c-0.2,0.2-0.4,0.3-0.6,0.3c-0.2,0-0.5,0-0.7-0.1
		c-0.2-0.1-0.4-0.2-0.5-0.4c-0.1-0.2-0.2-0.5-0.3-1l-0.3-1.7l0.4-0.1l0.3,1.6c0.1,0.4,0.1,0.6,0.2,0.8c0.1,0.2,0.2,0.4,0.4,0.4
		c0.2,0.1,0.4,0.1,0.6,0.1c0.3-0.1,0.5-0.2,0.6-0.4c0.2-0.2,0.3-0.4,0.3-0.7c0-0.2,0-0.5-0.1-0.9l-0.2-1.2l0.4-0.1L108.9,175.4z"/>
	<path class="st1" d="M99.2,176.9l-0.4,0l-0.3-2.7c-0.1-0.5-0.1-0.8,0-1c0.1-0.3,0.2-0.6,0.5-0.8c0.3-0.2,0.6-0.3,1-0.4
		c0.3,0,0.5,0,0.8,0c0.2,0.1,0.4,0.1,0.6,0.3c0.2,0.1,0.3,0.3,0.5,0.6l-0.5,0.1c-0.2-0.2-0.3-0.4-0.5-0.4c-0.2-0.1-0.5-0.1-0.8-0.1
		c-0.3,0-0.5,0.1-0.7,0.2c-0.2,0.1-0.3,0.3-0.4,0.5c-0.1,0.2-0.1,0.4,0,0.8l0,0.2c0.1-0.2,0.3-0.4,0.5-0.5c0.2-0.1,0.5-0.2,0.7-0.3
		c0.3,0,0.6,0,0.9,0.1c0.3,0.1,0.5,0.3,0.7,0.5c0.2,0.2,0.3,0.5,0.3,0.8c0,0.3,0,0.6-0.1,0.9c-0.1,0.3-0.3,0.5-0.6,0.7
		c-0.3,0.2-0.5,0.3-0.8,0.3c-0.2,0-0.5,0-0.7-0.1c-0.2-0.1-0.5-0.2-0.7-0.4L99.2,176.9z M100.4,176.4c0.2,0,0.5-0.1,0.7-0.3
		c0.2-0.1,0.3-0.3,0.4-0.5c0.1-0.2,0.1-0.5,0.1-0.7c0-0.4-0.2-0.7-0.5-0.9c-0.3-0.2-0.6-0.3-1-0.2c-0.4,0-0.7,0.2-0.9,0.5
		c-0.2,0.3-0.3,0.6-0.3,1c0,0.3,0.1,0.5,0.2,0.7c0.1,0.2,0.3,0.3,0.5,0.4C100,176.4,100.2,176.5,100.4,176.4"/>
	<path class="st1" d="M89.8,178.7c-0.1,0-0.2,0-0.3-0.1c-0.1-0.1-0.1-0.2-0.1-0.3c0-0.1,0-0.2,0.1-0.2c0.1-0.1,0.2-0.1,0.3-0.1
		c0.1,0,0.2,0,0.3,0.1c0.1,0.1,0.1,0.2,0.1,0.3c0,0.1,0,0.2-0.1,0.3C90,178.7,89.9,178.7,89.8,178.7 M90,177.3l-0.4,0l0-3.9
		c0-0.3,0.1-0.5,0.2-0.6c0.1-0.1,0.2-0.2,0.4-0.2c0.1,0,0.3,0,0.5,0.1l0,0.4c-0.1-0.1-0.2-0.1-0.3-0.1c-0.1,0-0.2,0-0.3,0.1
		c0,0.1-0.1,0.2-0.1,0.4L90,177.3z"/>
	<path class="st1" d="M84,177.2c-0.5,0-0.9-0.3-1.2-0.7c-0.3-0.4-0.4-0.8-0.4-1.2c0-0.5,0.2-0.9,0.6-1.2c0.4-0.3,0.8-0.5,1.3-0.4
		c0.5,0,0.9,0.2,1.2,0.6c0.3,0.4,0.4,0.8,0.4,1.3c0,0.5-0.2,0.9-0.6,1.2C85,177.1,84.6,177.2,84,177.2 M84.1,176.8
		c0.4,0,0.7-0.1,1-0.3c0.3-0.2,0.4-0.6,0.5-0.9c0-0.2,0-0.5-0.1-0.7c-0.1-0.2-0.2-0.4-0.4-0.5c-0.2-0.1-0.4-0.2-0.6-0.2
		c-0.2,0-0.5,0-0.7,0.1c-0.2,0.1-0.4,0.2-0.5,0.4c-0.1,0.2-0.2,0.4-0.2,0.7c0,0.4,0.1,0.7,0.3,1C83.4,176.6,83.7,176.7,84.1,176.8"
		/>
	<path class="st1" d="M78.5,176.5l-0.4-0.1l0.2-1.6c0.1-0.4,0.1-0.6,0.1-0.8c0-0.2-0.1-0.4-0.3-0.5c-0.2-0.1-0.4-0.2-0.6-0.3
		c-0.2,0-0.5,0-0.6,0.1c-0.2,0.1-0.3,0.2-0.4,0.4c-0.1,0.1-0.1,0.4-0.2,0.8l-0.2,1.6l-0.4-0.1l0.3-1.6c0.1-0.5,0.2-0.8,0.3-1
		c0.1-0.2,0.3-0.4,0.6-0.5c0.2-0.1,0.5-0.1,0.8-0.1c0.3,0.1,0.6,0.2,0.8,0.3c0.2,0.2,0.3,0.4,0.4,0.6c0.1,0.3,0.1,0.6,0,1.1
		L78.5,176.5z"/>
	<path class="st1" d="M71.8,175.3l-0.4-0.1l0.1-0.5c-0.2,0.2-0.3,0.3-0.5,0.3c-0.2,0.1-0.3,0.1-0.5,0c-0.1,0-0.2-0.1-0.3-0.2
		l0.3-0.3c0.1,0.1,0.1,0.1,0.2,0.1c0.1,0,0.3,0,0.4-0.1c0.2-0.1,0.3-0.2,0.4-0.5c0.1-0.2,0.2-0.5,0.3-1.1l0.3-1.1l0.4,0.1
		L71.8,175.3z"/>
	<path class="st1" d="M66.8,174.1l-0.4-0.1l0.2-0.6c-0.2,0.2-0.5,0.3-0.7,0.3c-0.2,0-0.5,0-0.7,0c-0.2-0.1-0.4-0.2-0.6-0.4
		c-0.1-0.2-0.2-0.4-0.3-0.6c0-0.2,0-0.6,0.2-1L65,170l0.4,0.1l-0.5,1.5c-0.1,0.4-0.2,0.6-0.2,0.8c0,0.2,0,0.4,0.1,0.6
		c0.1,0.1,0.3,0.3,0.5,0.3c0.3,0.1,0.5,0.1,0.7,0c0.2-0.1,0.4-0.3,0.6-0.5c0.1-0.1,0.2-0.4,0.3-0.9l0.4-1.2l0.4,0.1L66.8,174.1z"/>
	<path class="st1" d="M57.1,170.6l1.2-3.1l0.4,0.2l-0.2,0.5c0.2-0.1,0.5-0.2,0.8-0.2c0.3,0,0.5,0,0.8,0.1c0.4,0.2,0.8,0.5,0.9,0.9
		c0.2,0.4,0.2,0.9,0,1.4c-0.2,0.5-0.5,0.8-0.9,1c-0.4,0.2-0.9,0.2-1.3,0c-0.3-0.1-0.5-0.2-0.6-0.4c-0.2-0.2-0.3-0.4-0.4-0.7
		l-0.2,0.6L57.1,170.6z M58.8,171c0.2,0.1,0.5,0.1,0.7,0.1c0.2,0,0.4-0.1,0.6-0.3c0.2-0.2,0.3-0.3,0.4-0.6c0.1-0.2,0.1-0.5,0.1-0.7
		c0-0.2-0.1-0.5-0.3-0.7c-0.1-0.2-0.3-0.3-0.5-0.4c-0.2-0.1-0.5-0.1-0.7-0.1c-0.2,0-0.5,0.1-0.6,0.3c-0.2,0.1-0.3,0.3-0.4,0.6
		c-0.1,0.4-0.1,0.7,0,1C58.2,170.6,58.4,170.8,58.8,171"/>
	
		<rect x="51.3" y="167.8" transform="matrix(0.4315 -0.9021 0.9021 0.4315 -121.0157 143.9123)" class="st1" width="4.7" height="0.4"/>
	<path class="st1" d="M48.7,168.2c-0.1,0-0.1-0.1-0.2-0.2c0-0.1,0-0.2,0-0.3c0-0.1,0.1-0.1,0.2-0.2c0.1,0,0.2,0,0.3,0
		c0.1,0,0.1,0.1,0.2,0.2c0,0.1,0,0.2,0,0.3c0,0.1-0.1,0.1-0.2,0.2C48.9,168.2,48.8,168.2,48.7,168.2 M49.6,167.1l-0.4-0.2l1.6-3
		l0.4,0.2L49.6,167.1z"/>
	<path class="st1" d="M44.5,163.7l0.4-0.1c0.1,0.3,0.2,0.5,0.4,0.6c0.1,0.1,0.2,0.1,0.4,0.1c0.1,0,0.2-0.1,0.3-0.2
		c0.1-0.1,0.1-0.2,0.1-0.3c0-0.1-0.1-0.3-0.3-0.6c-0.2-0.3-0.3-0.6-0.3-0.8c0-0.2,0-0.4,0.1-0.5c0.1-0.2,0.3-0.4,0.6-0.4
		c0.3-0.1,0.5,0,0.8,0.1c0.2,0.1,0.3,0.2,0.4,0.4c0.1,0.2,0.2,0.3,0.2,0.5l-0.4,0.1c-0.1-0.3-0.2-0.6-0.4-0.7
		c-0.1-0.1-0.3-0.1-0.5-0.1c-0.2,0-0.3,0.1-0.4,0.2c-0.1,0.1-0.1,0.2-0.1,0.3c0,0.1,0.1,0.3,0.3,0.6c0.2,0.3,0.3,0.5,0.3,0.7
		c0,0.2,0,0.4-0.1,0.5c-0.1,0.2-0.3,0.4-0.6,0.4c-0.2,0.1-0.5,0-0.7-0.1C44.8,164.4,44.6,164.1,44.5,163.7"/>
	<polygon class="st1" points="40.1,162.7 39.8,162.5 40.5,161.5 39.9,161.1 40.2,160.8 40.7,161.2 42.4,158.7 42.8,159 41.1,161.4 
		41.6,161.8 41.3,162.1 40.9,161.7 	"/>
	<path class="st1" d="M36,159.9c-0.1-0.1-0.1-0.1-0.1-0.2c0-0.1,0-0.2,0.1-0.3c0.1-0.1,0.1-0.1,0.2-0.1c0.1,0,0.2,0,0.3,0.1
		c0.1,0.1,0.1,0.1,0.1,0.2c0,0.1,0,0.2-0.1,0.3c-0.1,0.1-0.1,0.1-0.2,0.1C36.2,159.9,36.1,159.9,36,159.9 M37,158.9l-0.3-0.3
		l2.1-2.6l0.3,0.3L37,158.9z"/>
	<path class="st1" d="M33,152.5l-0.1-0.4c0.2-0.1,0.5-0.1,0.7-0.1c0.2,0,0.4,0,0.6,0.1c0.2,0.1,0.4,0.2,0.6,0.4
		c0.4,0.4,0.6,0.8,0.6,1.3c0,0.5-0.2,0.9-0.5,1.2c-0.3,0.3-0.6,0.5-1.1,0.6c-0.5,0.1-1,0-1.4-0.4c-0.4-0.4-0.6-0.9-0.6-1.4
		c0-0.4,0.2-0.8,0.5-1.1l2.3,2c0.3-0.3,0.4-0.6,0.4-1c0-0.3-0.1-0.6-0.4-0.9c-0.1-0.1-0.3-0.2-0.4-0.3c-0.2-0.1-0.3-0.1-0.5-0.1
		C33.5,152.4,33.3,152.5,33,152.5 M32.4,153.2c-0.1,0.2-0.2,0.4-0.2,0.6c0,0.2,0,0.4,0.1,0.5c0.1,0.2,0.2,0.3,0.3,0.5
		c0.2,0.2,0.5,0.3,0.8,0.3c0.2,0,0.5-0.1,0.8-0.3L32.4,153.2z"/>
	<polygon class="st1" points="27.4,152.1 27.1,151.7 29.1,149.9 27,149.7 26.6,149.3 29,149.5 28.9,146.9 29.4,147.3 29.4,149.6 
		30.5,148.5 30.8,148.8 	"/>
	<path class="st1" d="M21.2,142.8l-0.3-0.4l0.5-0.4c-0.3,0-0.5-0.1-0.8-0.2c-0.2-0.1-0.4-0.3-0.6-0.5c-0.3-0.4-0.4-0.8-0.3-1.3
		c0.1-0.5,0.3-0.9,0.7-1.1c0.4-0.3,0.8-0.4,1.3-0.3c0.5,0.1,0.9,0.3,1.1,0.7c0.2,0.2,0.3,0.4,0.3,0.7c0,0.2,0,0.5,0,0.8l1.5-1.1
		l0.3,0.4L21.2,142.8z M20.4,141.2c0.2,0.3,0.5,0.5,0.9,0.5c0.4,0.1,0.7,0,1-0.3c0.2-0.1,0.4-0.3,0.5-0.5c0.1-0.2,0.1-0.4,0.1-0.7
		c0-0.2-0.1-0.5-0.2-0.7c-0.1-0.2-0.3-0.3-0.5-0.4c-0.2-0.1-0.4-0.1-0.7-0.1c-0.2,0-0.5,0.1-0.7,0.2c-0.2,0.1-0.3,0.3-0.4,0.5
		c-0.1,0.2-0.1,0.5-0.1,0.7C20.2,140.8,20.3,141,20.4,141.2"/>
	<path class="st1" d="M17.1,136.8l-0.2-0.4l0.4-0.3c-0.2,0-0.4-0.1-0.6-0.1c-0.2-0.1-0.3-0.2-0.4-0.3c-0.1-0.1-0.1-0.2-0.1-0.4h0.4
		c0,0.1,0,0.2,0.1,0.2c0.1,0.1,0.2,0.2,0.4,0.3c0.2,0.1,0.4,0,0.6,0c0.2-0.1,0.5-0.2,1-0.5l1-0.6L20,135L17.1,136.8z"/>
	<path class="st1" d="M15.2,128.8l0-0.4c0.3,0,0.5,0,0.7,0.1c0.2,0.1,0.4,0.2,0.5,0.3c0.2,0.1,0.3,0.3,0.4,0.5
		c0.3,0.5,0.3,0.9,0.1,1.4c-0.2,0.4-0.5,0.8-0.9,1c-0.4,0.2-0.8,0.3-1.2,0.2c-0.5-0.1-0.9-0.4-1.2-0.9c-0.3-0.5-0.3-1-0.1-1.5
		c0.2-0.4,0.4-0.6,0.8-0.9l1.4,2.7c0.3-0.2,0.6-0.4,0.7-0.8c0.1-0.3,0.1-0.7-0.1-1c-0.1-0.2-0.2-0.3-0.3-0.4
		c-0.1-0.1-0.3-0.2-0.4-0.3C15.6,128.9,15.4,128.8,15.2,128.8 M14.4,129.3c-0.2,0.2-0.3,0.3-0.4,0.5c-0.1,0.2-0.1,0.3-0.1,0.5
		c0,0.2,0.1,0.4,0.2,0.6c0.2,0.3,0.4,0.5,0.7,0.6c0.2,0.1,0.5,0.1,0.8,0L14.4,129.3z"/>
	<path class="st1" d="M11,124.2l0.4,0.1c-0.1,0.3-0.1,0.6,0,0.8c0.1,0.1,0.1,0.2,0.3,0.3c0.1,0.1,0.2,0.1,0.4,0
		c0.1,0,0.2-0.1,0.2-0.2c0.1-0.1,0.1-0.3,0.1-0.6c0-0.4,0.1-0.6,0.2-0.8c0.1-0.2,0.2-0.3,0.4-0.4c0.3-0.1,0.5-0.1,0.8,0
		c0.3,0.1,0.4,0.3,0.6,0.6c0.1,0.2,0.1,0.4,0.1,0.6c0,0.2-0.1,0.4-0.1,0.5l-0.4-0.1c0.1-0.3,0.2-0.6,0.1-0.8
		c-0.1-0.2-0.2-0.3-0.3-0.3c-0.2-0.1-0.3-0.1-0.4,0c-0.1,0-0.2,0.1-0.3,0.2c-0.1,0.1-0.1,0.3-0.1,0.6c0,0.3-0.1,0.6-0.2,0.8
		c-0.1,0.2-0.2,0.3-0.4,0.4c-0.2,0.1-0.5,0.1-0.7,0c-0.2-0.1-0.4-0.3-0.5-0.5C10.8,125,10.8,124.6,11,124.2"/>
	<path class="st1" d="M10.4,117.4l0.1-0.4c0.3,0,0.5,0.1,0.7,0.2c0.2,0.1,0.3,0.2,0.5,0.4c0.1,0.2,0.2,0.4,0.3,0.6
		c0.2,0.5,0.2,1-0.1,1.4c-0.2,0.4-0.6,0.7-1,0.8c-0.4,0.1-0.8,0.1-1.2,0c-0.5-0.2-0.9-0.5-1-1c-0.2-0.5-0.1-1,0.2-1.5
		c0.2-0.3,0.5-0.6,1-0.7l1,2.9c0.4-0.1,0.6-0.4,0.8-0.7c0.2-0.3,0.2-0.6,0.1-1c-0.1-0.2-0.1-0.3-0.3-0.4c-0.1-0.1-0.2-0.2-0.4-0.3
		C10.8,117.5,10.6,117.5,10.4,117.4 M9.5,117.7c-0.2,0.1-0.3,0.3-0.4,0.4c-0.1,0.1-0.2,0.3-0.2,0.5c0,0.2,0,0.4,0.1,0.6
		c0.1,0.3,0.3,0.5,0.6,0.7c0.2,0.1,0.5,0.2,0.8,0.1L9.5,117.7z"/>
	<path class="st1" d="M7,114l-0.1-0.4l0.6-0.2c-0.3-0.1-0.5-0.3-0.6-0.4c-0.2-0.2-0.3-0.4-0.3-0.6c-0.1-0.2-0.1-0.5,0-0.7
		c0.1-0.2,0.2-0.4,0.4-0.5c0.2-0.1,0.5-0.3,0.9-0.4l1.7-0.4l0.1,0.4L8,111.1c-0.4,0.1-0.6,0.2-0.7,0.2c-0.2,0.1-0.3,0.2-0.4,0.4
		c-0.1,0.2-0.1,0.4,0,0.6c0.1,0.3,0.2,0.5,0.4,0.6c0.2,0.2,0.5,0.2,0.7,0.2c0.2,0,0.5-0.1,0.9-0.2l1.2-0.3l0.1,0.4L7,114z"/>
	<polygon class="st1" points="4.1,107.1 4,106.6 5.2,106.4 5.1,105.7 5.5,105.7 5.6,106.3 8.5,105.8 8.6,106.2 5.7,106.8 5.8,107.3 
		5.4,107.4 5.3,106.8 	"/>
	<path class="st1" d="M4.1,98.7l3.3-0.4l0,0.4L7,98.8c0.2,0.2,0.4,0.3,0.6,0.6c0.1,0.2,0.2,0.5,0.3,0.7c0.1,0.5-0.1,0.9-0.4,1.3
		c-0.3,0.4-0.7,0.6-1.2,0.6c-0.5,0.1-0.9-0.1-1.3-0.4c-0.4-0.3-0.6-0.7-0.7-1.2c0-0.3,0-0.5,0.1-0.8c0.1-0.2,0.2-0.5,0.5-0.6
		l-0.6,0.1L4.1,98.7z M4.7,100.4c0,0.2,0.1,0.5,0.3,0.6c0.1,0.2,0.3,0.3,0.6,0.4c0.2,0.1,0.5,0.1,0.7,0.1c0.2,0,0.5-0.1,0.7-0.3
		c0.2-0.1,0.3-0.3,0.4-0.5c0.1-0.2,0.1-0.4,0.1-0.7c0-0.2-0.1-0.5-0.3-0.6C7,99.2,6.8,99.1,6.6,99c-0.2-0.1-0.4-0.1-0.7-0.1
		c-0.4,0-0.7,0.2-0.9,0.5C4.7,99.7,4.6,100,4.7,100.4"/>
	<polygon class="st1" points="2.6,94.3 2.6,93.9 3.8,93.9 3.8,93.2 4.2,93.2 4.2,93.8 7.2,93.7 7.2,94.2 4.2,94.3 4.2,94.9 
		3.9,94.9 3.8,94.3 	"/>
	<path class="st1" d="M2.4,89.3c0-0.1,0-0.2,0.1-0.3C2.6,89,2.7,89,2.8,89c0.1,0,0.2,0,0.2,0.1c0.1,0.1,0.1,0.2,0.1,0.3
		c0,0.1,0,0.2-0.1,0.2c-0.1,0.1-0.2,0.1-0.3,0.1c-0.1,0-0.2,0-0.3-0.1C2.4,89.5,2.4,89.4,2.4,89.3 M3.8,89.6l0-0.4l3.4,0l0,0.4
		L3.8,89.6z"/>
	<path class="st1" d="M6.4,82.5l0.2-0.3c0.2,0.1,0.4,0.3,0.5,0.5c0.1,0.2,0.2,0.4,0.3,0.6c0.1,0.2,0.1,0.4,0.1,0.7
		c0,0.5-0.3,1-0.6,1.2c-0.4,0.3-0.8,0.4-1.3,0.4c-0.4,0-0.8-0.2-1.1-0.5c-0.4-0.4-0.6-0.8-0.5-1.4c0-0.6,0.3-1,0.8-1.3
		C5,82.1,5.4,82,5.9,82l-0.2,3c0.4,0,0.7-0.1,1-0.3c0.3-0.2,0.4-0.5,0.4-0.9c0-0.2,0-0.3,0-0.5c0-0.2-0.1-0.3-0.2-0.4
		C6.7,82.8,6.6,82.7,6.4,82.5 M5.5,82.4c-0.2,0-0.4,0.1-0.6,0.2c-0.1,0.1-0.3,0.2-0.4,0.4c-0.1,0.2-0.2,0.4-0.2,0.6
		c0,0.3,0.1,0.6,0.2,0.9c0.1,0.2,0.4,0.3,0.7,0.4L5.5,82.4z"/>
	<polygon class="st1" points="3.5,77.4 3.6,77 4.8,77.2 4.9,76.5 5.3,76.6 5.2,77.3 8.1,77.7 8.1,78.1 5.1,77.7 5,78.3 4.6,78.2 
		4.7,77.6 	"/>
	<path class="st1" d="M6.3,69.6l3.3,0.8l-0.1,0.4L9,70.6c0.2,0.2,0.3,0.5,0.3,0.7c0.1,0.2,0.1,0.5,0,0.8c-0.1,0.5-0.4,0.8-0.8,1.1
		c-0.4,0.3-0.9,0.3-1.3,0.2c-0.5-0.1-0.8-0.4-1.1-0.8c-0.3-0.4-0.3-0.8-0.2-1.3C5.9,71,6,70.8,6.2,70.6c0.2-0.2,0.4-0.3,0.6-0.5
		L6.2,70L6.3,69.6z M6.3,71.4c-0.1,0.2,0,0.5,0,0.7c0.1,0.2,0.2,0.4,0.4,0.6c0.2,0.2,0.4,0.3,0.6,0.3c0.2,0.1,0.5,0,0.7,0
		c0.2-0.1,0.4-0.2,0.6-0.4c0.2-0.2,0.3-0.4,0.3-0.6c0.1-0.2,0-0.5,0-0.7c-0.1-0.2-0.2-0.4-0.4-0.6c-0.2-0.2-0.4-0.3-0.6-0.3
		c-0.4-0.1-0.7,0-1,0.2C6.5,70.7,6.3,71,6.3,71.4"/>
	<rect x="8.2" y="63.5" transform="matrix(0.2927 -0.9562 0.9562 0.2927 -56.9805 54.6568)" class="st1" width="0.4" height="4.7"/>
	<path class="st1" d="M11.9,59.7l0.3-0.3c0.2,0.2,0.3,0.4,0.4,0.6c0.1,0.2,0.1,0.4,0.1,0.6c0,0.2,0,0.4-0.1,0.7
		c-0.2,0.5-0.5,0.9-1,1c-0.4,0.2-0.9,0.2-1.3,0c-0.4-0.2-0.7-0.4-0.9-0.8c-0.3-0.5-0.3-1-0.1-1.5c0.2-0.5,0.6-0.9,1.1-1.1
		c0.4-0.1,0.8-0.1,1.2,0.1l-1.1,2.8c0.4,0.1,0.7,0.1,1,0c0.3-0.1,0.5-0.4,0.7-0.7c0.1-0.2,0.1-0.3,0.1-0.5c0-0.2,0-0.3-0.1-0.5
		C12.1,60.1,12,59.9,11.9,59.7 M11,59.4c-0.2,0-0.4,0-0.6,0c-0.2,0.1-0.3,0.2-0.5,0.3c-0.1,0.1-0.3,0.3-0.3,0.5
		c-0.1,0.3-0.1,0.6,0,0.9c0.1,0.2,0.3,0.4,0.5,0.6L11,59.4z"/>
	<path class="st1" d="M11.5,54.9l0.2-0.4l0.5,0.3C12.1,54.5,12,54.2,12,54c0-0.2,0-0.5,0.1-0.7c0.1-0.2,0.3-0.4,0.5-0.5
		c0.2-0.1,0.4-0.2,0.7-0.2c0.2,0,0.6,0.1,1,0.3l1.6,0.7l-0.2,0.4l-1.5-0.7c-0.4-0.2-0.6-0.3-0.7-0.3c-0.2-0.1-0.4,0-0.6,0
		c-0.2,0.1-0.3,0.2-0.4,0.4c-0.1,0.2-0.1,0.5-0.1,0.7c0.1,0.3,0.2,0.5,0.4,0.6c0.1,0.1,0.4,0.3,0.8,0.4l1.1,0.5l-0.2,0.4L11.5,54.9z
		"/>
	<polygon class="st1" points="13.7,47.7 13.9,47.4 15,48 15.3,47.4 15.6,47.6 15.3,48.2 17.9,49.6 17.7,50 15.1,48.5 14.8,49 
		14.5,48.9 14.8,48.3 	"/>
	<path class="st1" d="M18.8,39.3c0.1-0.1,0.1-0.1,0.2-0.1c0.1,0,0.2,0,0.3,0.1c0.1,0.1,0.1,0.1,0.1,0.2c0,0.1,0,0.2-0.1,0.3
		c-0.1,0.1-0.1,0.1-0.2,0.1c-0.1,0-0.2,0-0.3-0.1c-0.1-0.1-0.1-0.1-0.1-0.2C18.8,39.5,18.8,39.4,18.8,39.3 M19.8,40.3l0.3-0.4l2.7,2
		l-0.3,0.4L19.8,40.3z"/>
	<path class="st1" d="M22.5,36.8l0.3-0.3l0.5,0.4c-0.1-0.3-0.1-0.5,0-0.8c0-0.2,0.1-0.4,0.3-0.6c0.2-0.2,0.4-0.3,0.6-0.4
		c0.2-0.1,0.4-0.1,0.7,0c0.2,0.1,0.5,0.2,0.9,0.5l1.3,1.1L26.7,37l-1.2-1c-0.3-0.2-0.5-0.4-0.6-0.5c-0.2-0.1-0.4-0.1-0.6-0.1
		c-0.2,0-0.3,0.1-0.5,0.3c-0.2,0.2-0.2,0.4-0.2,0.7c0,0.3,0.1,0.5,0.2,0.7c0.1,0.1,0.3,0.3,0.7,0.6l1,0.8l-0.3,0.3L22.5,36.8z"/>
	<path class="st1" d="M32,24.8l3.2,3.4l-0.3,0.3l-0.4-0.4c0,0.3,0,0.5-0.1,0.8c-0.1,0.2-0.2,0.4-0.4,0.6c-0.3,0.3-0.8,0.5-1.2,0.4
		c-0.5,0-0.9-0.2-1.2-0.6c-0.3-0.4-0.5-0.8-0.5-1.3c0-0.5,0.2-0.9,0.6-1.2c0.2-0.2,0.4-0.3,0.7-0.4c0.2-0.1,0.5-0.1,0.8,0l-1.3-1.4
		L32,24.8z M31.8,27.2c-0.2,0.2-0.3,0.4-0.4,0.6c-0.1,0.2-0.1,0.5,0,0.7c0.1,0.2,0.2,0.4,0.3,0.6c0.2,0.2,0.4,0.3,0.6,0.4
		c0.2,0.1,0.5,0.1,0.7,0c0.2-0.1,0.4-0.2,0.6-0.3c0.2-0.2,0.3-0.4,0.4-0.6c0.1-0.2,0.1-0.5,0-0.7c-0.1-0.2-0.2-0.4-0.3-0.6
		c-0.3-0.3-0.6-0.4-0.9-0.5C32.4,26.8,32.1,26.9,31.8,27.2"/>
	<path class="st1" d="M39.6,23.2l0.4-0.1c0,0.3,0.1,0.5,0,0.7c0,0.2-0.1,0.4-0.2,0.6c-0.1,0.2-0.3,0.3-0.5,0.5
		c-0.4,0.3-0.9,0.5-1.3,0.4c-0.5-0.1-0.8-0.3-1.1-0.7c-0.3-0.3-0.4-0.7-0.4-1.1c0-0.5,0.2-1,0.7-1.3c0.5-0.4,0.9-0.5,1.5-0.3
		c0.4,0.1,0.7,0.3,1,0.7l-2.4,1.9c0.2,0.3,0.5,0.5,0.9,0.5c0.3,0,0.7,0,0.9-0.3c0.1-0.1,0.2-0.2,0.3-0.4c0.1-0.1,0.2-0.3,0.2-0.4
		C39.6,23.6,39.6,23.4,39.6,23.2 M39,22.5c-0.2-0.1-0.4-0.2-0.5-0.3c-0.2,0-0.4,0-0.6,0c-0.2,0-0.4,0.1-0.5,0.3
		c-0.3,0.2-0.4,0.5-0.5,0.8c0,0.2,0,0.5,0.1,0.8L39,22.5z"/>
	<path class="st1" d="M45.8,16.2l0.4-0.2l0.3,0.5c0-0.3,0.1-0.5,0.2-0.6c0.1-0.2,0.3-0.4,0.5-0.5c0.1-0.1,0.3-0.1,0.5-0.1
		c0.2,0,0.3,0,0.4,0c0.1,0,0.3,0.1,0.4,0.3c0-0.3,0.1-0.6,0.2-0.8c0.1-0.2,0.3-0.4,0.5-0.5c0.2-0.1,0.4-0.2,0.6-0.1
		c0.2,0,0.4,0.1,0.6,0.2c0.2,0.1,0.4,0.4,0.6,0.8l0.9,1.6l-0.4,0.2l-0.9-1.6c-0.2-0.3-0.3-0.5-0.4-0.6c-0.1-0.1-0.2-0.1-0.4-0.2
		c-0.1,0-0.3,0-0.4,0.1c-0.2,0.1-0.3,0.2-0.4,0.4c-0.1,0.2-0.1,0.4-0.1,0.6c0,0.2,0.2,0.5,0.4,1l0.6,1.1L49.5,18l-0.8-1.5
		c-0.2-0.4-0.4-0.6-0.5-0.7c-0.1-0.1-0.2-0.2-0.4-0.2c-0.2,0-0.3,0-0.5,0.1c-0.2,0.1-0.3,0.2-0.4,0.4c-0.1,0.2-0.1,0.4-0.1,0.6
		c0,0.2,0.1,0.5,0.3,0.9l0.7,1.2l-0.4,0.2L45.8,16.2z"/>
	<path class="st1" d="M57.3,12.9l0.4,0c0,0.3-0.1,0.5-0.1,0.7c-0.1,0.2-0.2,0.4-0.3,0.5c-0.1,0.1-0.3,0.3-0.6,0.4
		c-0.5,0.2-1,0.2-1.4,0c-0.4-0.2-0.7-0.5-0.9-0.9c-0.2-0.4-0.2-0.8-0.1-1.2c0.1-0.5,0.5-0.9,1-1.1c0.5-0.2,1-0.2,1.5,0
		c0.3,0.2,0.6,0.5,0.8,0.9l-2.8,1.2c0.2,0.4,0.4,0.6,0.7,0.7c0.3,0.1,0.6,0.1,1,0c0.2-0.1,0.3-0.2,0.4-0.3c0.1-0.1,0.2-0.2,0.3-0.4
		C57.3,13.4,57.3,13.2,57.3,12.9 M57,12.1c-0.1-0.2-0.3-0.3-0.5-0.4c-0.2-0.1-0.3-0.1-0.5-0.1c-0.2,0-0.4,0-0.6,0.1
		c-0.3,0.1-0.5,0.3-0.6,0.6c-0.1,0.2-0.1,0.5-0.1,0.8L57,12.1z"/>
	<path class="st1" d="M63.2,6.9l1.5,4.4l-0.4,0.1l-0.2-0.5c-0.1,0.3-0.2,0.5-0.4,0.7c-0.2,0.2-0.4,0.3-0.6,0.4
		c-0.4,0.2-0.9,0.1-1.3-0.1c-0.4-0.2-0.7-0.6-0.9-1c-0.2-0.5-0.1-0.9,0.1-1.3c0.2-0.4,0.5-0.7,1-0.9c0.3-0.1,0.5-0.1,0.8-0.1
		c0.2,0,0.5,0.1,0.7,0.3L62.8,7L63.2,6.9z M62.1,9c-0.2,0.1-0.4,0.2-0.6,0.4c-0.2,0.2-0.3,0.4-0.3,0.6c0,0.2,0,0.5,0.1,0.7
		c0.1,0.2,0.2,0.4,0.4,0.6c0.2,0.2,0.4,0.3,0.6,0.3c0.2,0,0.5,0,0.7,0c0.2-0.1,0.4-0.2,0.6-0.4c0.2-0.2,0.3-0.4,0.3-0.6
		c0-0.2,0-0.5-0.1-0.7c-0.1-0.4-0.4-0.6-0.7-0.8C62.8,8.9,62.5,8.9,62.1,9"/>
	<path class="st1" d="M67.3,5.6c0.1,0,0.2,0,0.3,0c0.1,0,0.1,0.1,0.2,0.2c0,0.1,0,0.2,0,0.3c0,0.1-0.1,0.1-0.2,0.2
		c-0.1,0-0.2,0-0.3,0c-0.1,0-0.1-0.1-0.2-0.2c0-0.1,0-0.2,0-0.3C67.2,5.7,67.2,5.6,67.3,5.6 M67.5,7l0.4-0.1l0.9,3.2l-0.4,0.1
		L67.5,7z"/>
	<path class="st1" d="M75,5.3l0.7,3.3l-0.4,0.1l-0.1-0.6c-0.1,0.3-0.3,0.5-0.5,0.6C74.5,8.8,74.2,8.9,74,9c-0.5,0.1-0.9,0-1.3-0.3
		c-0.4-0.3-0.6-0.6-0.7-1.1c-0.1-0.5,0-0.9,0.3-1.3c0.3-0.4,0.6-0.7,1.1-0.7c0.3-0.1,0.5,0,0.8,0c0.2,0.1,0.5,0.2,0.7,0.4l-0.1-0.6
		L75,5.3z M73.4,5.9c-0.2,0-0.4,0.1-0.6,0.3c-0.2,0.2-0.3,0.4-0.4,0.6c-0.1,0.2-0.1,0.5,0,0.7c0,0.2,0.2,0.4,0.3,0.6
		c0.2,0.2,0.4,0.3,0.6,0.4c0.2,0.1,0.5,0.1,0.7,0c0.2,0,0.4-0.1,0.6-0.3c0.2-0.2,0.3-0.4,0.4-0.6C75,7.5,75,7.3,75,7
		c-0.1-0.4-0.3-0.7-0.6-0.9C74.1,5.9,73.8,5.9,73.4,5.9"/>
	<circle class="st2" cx="90.5" cy="90.5" r="90"/>
	<path class="st3" d="M90.5,9.3C45.6,9.3,9.3,45.6,9.3,90.5c0,44.9,36.4,81.2,81.2,81.2s81.2-36.4,81.2-81.2
		C171.7,45.6,135.4,9.3,90.5,9.3 M90.5,140.8c-27.8,0-50.3-22.5-50.3-50.3c0-27.8,22.5-50.3,50.3-50.3s50.3,22.5,50.3,50.3
		C140.8,118.3,118.3,140.8,90.5,140.8"/>
	<path class="st4" d="M137,90.5c0,25.7-20.8,46.5-46.5,46.5C64.8,137,44,116.2,44,90.5S64.8,44,90.5,44C116.2,44,137,64.8,137,90.5"
		/>
	<path class="st5" d="M56.6,75.2c0.7-3.5,1.8-6.9,3.3-9.9c1-2.1,2.1-4,3.3-5.8C60.4,62,58,64.8,56,68c-1.3,2-2.4,4-3.3,6.2
		C53.9,74.6,55.2,74.9,56.6,75.2"/>
	<path class="st5" d="M62.4,66.5c-1.3,2.8-2.4,5.9-3.1,9.2c3.7,0.5,7.7,0.6,12,0.4c-0.2-4.8-0.1-9.1,0.4-13c0.5-4.3,1.6-7.8,3-10.5
		C69.5,55.5,65.2,60.4,62.4,66.5"/>
	<path class="st5" d="M80.8,50.4c-3.2,1-5.4,5.9-6.3,13.1c-0.5,3.6-0.6,7.9-0.4,12.4c4.2-0.3,8.6-1,12.9-1.9c3.8-0.8,7.5-1.8,11.1-3
		c-1.7-4.3-3.5-8.2-5.5-11.4c-3.9-6.3-7.9-9.9-11.3-9.4C81.2,50.3,81,50.3,80.8,50.4"/>
	<path class="st5" d="M95,58.2c2,3.3,4,7.4,5.7,11.9c4.1-1.5,7.8-3.2,11-5.1c-2.1-2.9-4.4-5.5-6.9-7.6C99.8,53,94,50.3,88,49.8
		C90.4,51.7,92.7,54.5,95,58.2"/>
	<path class="st5" d="M106.7,55.3c2.7,2.3,5.2,5.1,7.4,8.2c1.6-1.1,3.1-2.2,4.4-3.4c-1.7-1.6-3.6-3-5.5-4.3
		c-4.3-2.8-9.1-4.8-14.2-5.8C101.5,51.4,104.2,53.2,106.7,55.3"/>
	<path class="st5" d="M128.3,106.5c-1.6-0.6-3.4-1-5.4-1.3c-0.7,3.8-1.9,7.3-3.4,10.5c-1.4,3-3.1,5.7-5.1,8.1
		c4.2-3,7.8-6.8,10.6-11.1C126.3,110.7,127.4,108.7,128.3,106.5"/>
	<path class="st5" d="M117.1,114.5c1.4-3,2.5-6.3,3.2-9.8c-3.7-0.4-7.9-0.4-12.2-0.1c0.3,4.9,0.1,9.3-0.4,13.2
		c-0.5,4.3-1.6,7.8-3,10.5C110,125.5,114.2,120.6,117.1,114.5"/>
	<path class="st5" d="M105,117.5c0.5-3.7,0.6-8,0.4-12.6c-3.7,0.4-7.6,1-11.4,1.8c-4.3,0.9-8.6,2.1-12.6,3.5
		c1.7,4.3,3.5,8.1,5.4,11.2c3.8,6.2,7.8,9.8,11.1,9.4c0.2,0,0.4-0.1,0.5-0.1C101.8,129.8,104,124.9,105,117.5"/>
	<path class="st5" d="M84.5,122.8c-2-3.3-3.9-7.2-5.6-11.7c-4,1.6-7.7,3.3-10.8,5.3c2,2.7,4.2,5.1,6.6,7.2
		c5.1,4.4,10.9,7.1,16.9,7.5C89.1,129.3,86.7,126.5,84.5,122.8"/>
	<path class="st5" d="M72.8,125.7c-2.6-2.2-4.9-4.8-7.1-7.7c-1.2,0.8-2.2,1.7-3.2,2.6c1.7,1.6,3.6,3,5.5,4.3c3.1,2,6.5,3.6,10.1,4.7
		C76.3,128.5,74.5,127.2,72.8,125.7"/>
	<path class="st5" d="M59.2,95.6l14.2-3c-1-4.8-1.6-9.4-1.9-13.7c-4.5,0.2-8.8,0.1-12.7-0.4C58,83.8,58.1,89.6,59.2,95.6"/>
	<path class="st5" d="M74.3,78.7c0.3,4.2,1,8.7,1.9,13.3l26.6-5.7c-1-4.5-2.3-8.8-3.7-12.8c-3.7,1.2-7.6,2.3-11.5,3.1
		C83.1,77.6,78.6,78.3,74.3,78.7"/>
	<path class="st5" d="M101.6,72.6c1.4,4.1,2.7,8.5,3.8,13.1l14.2-3c-1.4-5.7-3.6-10.9-6.4-15.4C109.8,69.3,105.9,71.1,101.6,72.6"/>
	<path class="st5" d="M115.6,65.8c3,4.8,5.3,10.3,6.8,16.3l8.1-1.7c-1.8-7.1-5.3-13.4-10-18.4C119,63.4,117.4,64.6,115.6,65.8"/>
	<path class="st5" d="M56.6,96.2c-1.2-6.3-1.3-12.5-0.4-18.3c-1.6-0.3-3.1-0.7-4.5-1.2c-2.3,6.5-3,13.6-1.7,20.9L56.6,96.2z"/>
	<path class="st5" d="M57.1,98.9l-6.5,1.4c1.8,7.1,5.3,13.4,10,18.4c1.1-1,2.3-2,3.6-2.9C61.1,110.8,58.6,105.1,57.1,98.9"/>
	<path class="st5" d="M59.8,98.3c1.4,5.9,3.7,11.3,6.7,15.9c3.3-2.1,7.2-4,11.4-5.6c-1.5-4.1-2.8-8.6-3.8-13.3L59.8,98.3z"/>
	<path class="st5" d="M76.7,94.7c1,4.6,2.3,9,3.7,13c4.1-1.5,8.5-2.7,13-3.6c3.9-0.8,7.9-1.5,11.8-1.8c-0.3-4.2-1-8.6-1.9-13.2
		L76.7,94.7z"/>
	<path class="st5" d="M106,88.4c0.9,4.7,1.6,9.2,1.9,13.5c4.5-0.3,8.9-0.3,12.8,0.2c0.7-5.3,0.6-10.9-0.5-16.7L106,88.4z"/>
	<path class="st5" d="M122.9,84.8c1.2,6.1,1.3,12.1,0.5,17.7c2.1,0.4,4.1,0.8,5.9,1.5c2.3-6.5,3-13.6,1.7-20.9L122.9,84.8z"/>
	<path class="st6" d="M23.7,121.3l-1.1-2.9c-0.6-1.6-0.9-2.7-0.9-3.5c0-0.8,0.3-1.5,0.8-2.2c0.5-0.6,1.2-1.2,2.1-1.5
		c1-0.4,1.9-0.5,2.8-0.2c0.9,0.3,1.6,0.8,2.2,1.6c0.4,0.5,0.8,1.4,1.3,2.8l6-2.4l1.1,2.7L23.7,121.3z M28.2,116.4l-0.3-0.9
		c-0.3-0.7-0.5-1.1-0.7-1.4c-0.2-0.2-0.4-0.4-0.7-0.4c-0.3-0.1-0.6,0-0.9,0.1c-0.6,0.2-0.9,0.6-1,1.1c-0.1,0.4,0.1,1,0.4,1.8
		l0.3,0.8L28.2,116.4z"/>
	<polygon class="st6" points="18.1,103.9 17.8,100.9 23.5,100.3 23,95.2 17.2,95.9 16.9,92.9 32.1,91.3 32.5,94.2 25.8,94.9 
		26.3,100 33,99.3 33.3,102.2 	"/>
	<rect x="23.7" y="75.6" transform="matrix(0.1094 -0.994 0.994 0.1094 -60.3703 99.1349)" class="st6" width="2.9" height="15.3"/>
	<polygon class="st6" points="19.2,72.5 20.1,69.7 32.1,73.3 33.3,69.2 36,70 33.9,76.9 	"/>
	
		<rect x="30.2" y="53.4" transform="matrix(0.4476 -0.8942 0.8942 0.4476 -37.1033 62.0567)" class="st6" width="2.9" height="15.3"/>
	<path class="st6" d="M30,48.7l1.9-2.4c1-1.3,1.9-2.2,2.6-2.6c0.7-0.4,1.5-0.5,2.3-0.5c0.8,0.1,1.6,0.4,2.4,1
		c0.8,0.7,1.4,1.4,1.6,2.3c0.2,0.9,0.1,1.8-0.2,2.7c-0.2,0.5-0.8,1.4-1.7,2.6l5.1,4L42,58.1L30,48.7z M36.5,50.1l0.6-0.7
		c0.4-0.6,0.7-1,0.8-1.3c0.1-0.3,0.1-0.6,0-0.8c-0.1-0.3-0.3-0.5-0.5-0.7c-0.5-0.4-0.9-0.4-1.4-0.3c-0.4,0.1-0.8,0.6-1.4,1.3
		L34,48.2L36.5,50.1z"/>
	<path class="st6" d="M58.2,42l-7.5-13.4l2.1-1.2c1.2-0.7,2.2-1.1,2.8-1.3c0.9-0.2,1.8-0.2,2.6,0.1c0.8,0.3,1.4,0.9,1.9,1.6
		c0.3,0.5,0.4,1,0.5,1.6c0,0.5-0.1,1.1-0.4,1.8c1-0.1,1.9,0.1,2.6,0.4c0.7,0.4,1.3,0.9,1.7,1.7c0.4,0.8,0.6,1.5,0.6,2.4
		c0,0.8-0.3,1.6-0.7,2.2c-0.4,0.6-1.2,1.3-2.3,1.9L58.2,42z M54.6,29.6l1.6,2.8l0.6-0.3c0.6-0.3,1-0.7,1.2-1.2
		c0.2-0.4,0.1-0.9-0.1-1.3c-0.2-0.4-0.6-0.7-1-0.8c-0.4-0.1-0.9,0-1.5,0.4L54.6,29.6z M57.5,34.7l1.9,3.4l0.6-0.4
		c1.1-0.6,1.7-1.1,1.9-1.6c0.2-0.5,0.2-1-0.1-1.5c-0.3-0.6-0.8-0.9-1.4-1c-0.6-0.1-1.4,0.1-2.4,0.7L57.5,34.7z"/>
	<polygon class="st6" points="67.2,20.8 70,20 73.5,32 77.6,30.8 78.4,33.5 71.5,35.5 	"/>
	<path class="st6" d="M89.9,16.7c2.2,0,4,0.7,5.6,2.3c1.6,1.6,2.4,3.5,2.4,5.7c0,2.2-0.7,4.1-2.3,5.7c-1.5,1.6-3.4,2.4-5.6,2.4
		c-2.3,0-4.2-0.8-5.8-2.3c-1.5-1.6-2.3-3.5-2.3-5.6c0-1.5,0.3-2.8,1-4.1c0.7-1.2,1.7-2.2,2.9-2.9C87.1,17.1,88.4,16.7,89.9,16.7
		 M89.9,19.5c-1.4,0-2.6,0.5-3.6,1.5c-1,1-1.4,2.3-1.4,3.8c0,1.7,0.6,3,1.9,4c1,0.8,2,1.1,3.3,1.1c1.4,0,2.6-0.5,3.5-1.5
		c1-1,1.4-2.2,1.4-3.7c0-1.5-0.5-2.7-1.5-3.7C92.5,20,91.3,19.5,89.9,19.5"/>
	<polygon class="st6" points="107,18.9 115.1,21.1 114.3,23.9 109,22.4 108.3,25.1 113.5,26.6 112.8,29.3 107.5,27.8 106.4,31.6 
		111.7,33.1 110.9,35.9 102.8,33.6 	"/>
	<polygon class="st6" points="125.2,25.5 127.6,27 124.7,37.9 133.6,30.9 135.9,32.4 129.7,46.7 127.4,45.2 131.3,36.1 123.3,42.5 
		121.1,41.1 123.7,31.2 117,38.4 114.6,36.8 	"/>
	<polygon class="st6" points="144.4,40.5 149.7,46.9 147.6,48.7 144,44.5 141.9,46.3 145.4,50.5 143.3,52.3 139.8,48.1 136.7,50.7 
		140.2,54.9 138,56.7 132.6,50.3 	"/>
	<polygon class="st6" points="154.8,54.5 156,57.1 149.5,67.2 158.7,63 159.9,65.7 145.9,72 144.8,69.5 151.2,59.4 142.1,63.5 
		140.9,60.9 	"/>
	<path class="st6" d="M162.6,75.7l0.4,3.4c0.3,2.2,0.2,3.9-0.2,5c-0.4,1.1-1.2,2.1-2.3,3c-1.1,0.9-2.5,1.4-4.2,1.6
		c-1.2,0.1-2.3,0.1-3.3-0.2c-1-0.3-1.9-0.7-2.6-1.3c-0.7-0.6-1.3-1.3-1.6-2.1c-0.3-0.8-0.6-2.1-0.9-4.1l-0.4-3.5L162.6,75.7z
		 M160.2,78.9l-9.6,1.2l0.2,1.3c0.2,1.3,0.4,2.3,0.8,2.8c0.4,0.6,1,1,1.7,1.3c0.8,0.3,1.7,0.4,2.7,0.2c1.6-0.2,2.8-0.8,3.6-1.8
		c0.7-0.9,0.9-2.3,0.7-4.1L160.2,78.9z"/>
	<path class="st6" d="M163.1,101.9l-0.5,2.9l-16.1,3.1l0.5-3l3.3-0.6l1.1-6.2l-2.9-1.8l0.5-3L163.1,101.9z M158.8,102.6l-4.8-2.9
		l-0.7,4L158.8,102.6z"/>
	<polygon class="st6" points="158.4,118.6 157.2,121.2 145.8,116 144,119.8 141.5,118.7 144.5,112.2 	"/>
	<polygon class="st6" points="134.4,137.4 132.3,139.5 135.3,139.2 136.7,141.9 137.3,138.9 140.3,138.4 137.6,137 138.1,134 
		135.9,136 133.2,134.7 	"/>
	<polygon class="st6" points="46.5,137.4 48.6,139.5 45.6,139.2 44.3,141.9 43.7,138.9 40.7,138.4 43.3,137 42.8,134 45.1,136 
		47.8,134.7 	"/>
	<polygon class="st1" points="91.1,4.2 90.5,2.4 89.9,4.2 87.9,4.3 89.5,5.4 88.9,7.3 90.5,6.2 92.1,7.3 91.5,5.4 93.1,4.3 	"/>
	<path class="st6" d="M64.8,147.5L66,148c0.6,0.3,1.1,0.5,1.3,0.8c0.2,0.2,0.4,0.5,0.4,0.9c0.1,0.3,0,0.7-0.2,1
		c-0.2,0.4-0.4,0.7-0.7,0.9c-0.3,0.2-0.7,0.2-1.1,0.2c-0.2,0-0.6-0.2-1.2-0.4l-1,2.5l-1.1-0.5L64.8,147.5z M64.9,150.3l0.4,0.1
		c0.3,0.1,0.5,0.2,0.6,0.2c0.1,0,0.2,0,0.3-0.1c0.1-0.1,0.2-0.2,0.2-0.3c0.1-0.2,0.1-0.4-0.1-0.6c-0.1-0.1-0.3-0.3-0.7-0.4l-0.3-0.1
		L64.9,150.3z"/>
	<path class="st6" d="M77.2,151.6l1.3,0.2c0.7,0.1,1.2,0.3,1.4,0.5c0.3,0.2,0.5,0.4,0.6,0.7c0.1,0.3,0.1,0.7,0.1,1.1
		c-0.1,0.4-0.2,0.7-0.5,1c-0.2,0.2-0.6,0.4-1,0.5l0.9,3l-1.3-0.2l-0.9-2.9l-0.1,0l-0.5,2.6l-1.2-0.2L77.2,151.6z M77.9,154.3
		l0.4,0.1c0.4,0.1,0.6,0.1,0.8,0c0.2-0.1,0.3-0.2,0.3-0.5c0-0.1,0-0.3,0-0.4c-0.1-0.1-0.1-0.2-0.2-0.3c-0.1-0.1-0.3-0.1-0.6-0.2
		l-0.3-0.1L77.9,154.3z"/>
	<rect x="90.4" y="153" transform="matrix(1 -8.245084e-03 8.245084e-03 1 -1.2848 0.7559)" class="st6" width="1.2" height="6.3"/>
	<path class="st6" d="M102.8,151.8l1.2-0.2l0.8,4.1c0.1,0.7,0.2,1.1,0.1,1.4c-0.1,0.3-0.2,0.5-0.4,0.7c-0.2,0.2-0.5,0.3-0.8,0.4
		c-0.7,0.1-1.3,0-1.9-0.6l0.7-1c0.2,0.2,0.4,0.3,0.6,0.3c0.1,0,0.3,0.1,0.4,0c0.1,0,0.2-0.1,0.3-0.2c0-0.1,0-0.4,0-0.7L102.8,151.8z
		"/>
	<path class="st6" d="M116.8,148.2l-0.5,1.1c-0.5-0.3-0.8-0.4-1.1-0.2c-0.1,0.1-0.2,0.2-0.3,0.3c-0.1,0.1-0.1,0.2,0,0.3
		c0,0.1,0.1,0.2,0.2,0.2c0.1,0.1,0.5,0.2,1.1,0.4c0.6,0.2,0.9,0.3,1.1,0.3c0.3,0.1,0.6,0.3,0.8,0.4c0.2,0.2,0.3,0.4,0.4,0.6
		c0.2,0.5,0.2,0.9,0,1.4c-0.2,0.5-0.6,0.8-1.1,1c-0.4,0.2-0.8,0.2-1.2,0.2c-0.4-0.1-0.8-0.3-1.2-0.6l0.7-1c0.5,0.4,0.9,0.5,1.3,0.4
		c0.2-0.1,0.3-0.2,0.4-0.4c0.1-0.2,0.1-0.3,0-0.5c-0.1-0.1-0.2-0.2-0.3-0.3c-0.2-0.1-0.5-0.2-0.9-0.3c-0.9-0.2-1.4-0.5-1.7-0.7
		c-0.3-0.2-0.5-0.4-0.6-0.7c-0.2-0.4-0.2-0.8,0-1.2c0.2-0.4,0.5-0.7,1-0.9c0.3-0.1,0.6-0.2,0.9-0.1
		C115.9,147.9,116.3,148,116.8,148.2"/>
	<path class="st7" d="M96.2,93.3c-0.8,0-1.4-0.6-1.4-1.4c0-0.8,0.6-1.4,1.4-1.4h6.9v-2.7h-6.9c-0.8,0-1.4-0.6-1.4-1.4
		s0.6-1.4,1.4-1.4h6.9v-2.7h-6.9c-0.8,0-1.4-0.6-1.4-1.4c0-0.8,0.6-1.4,1.4-1.4h6.9v-2.4h-6.9c-0.8,0-1.4-0.6-1.4-1.4
		c0-0.8,0.6-1.4,1.4-1.4h6.9v-2.7h-6.9c-0.8,0-1.4-0.6-1.4-1.4s0.6-1.4,1.4-1.4h6.8c-0.8-5.6-5.5-9.9-11.3-9.9h-2.3
		c-5.8,0-10.5,4.3-11.3,9.9h6.2c0.8,0,1.4,0.6,1.4,1.4s-0.6,1.4-1.4,1.4h-6.3V74h6.3c0.8,0,1.4,0.6,1.4,1.4c0,0.8-0.6,1.4-1.4,1.4
		h-6.3v2.7h6.3c0.8,0,1.4,0.6,1.4,1.4c0,0.8-0.6,1.4-1.4,1.4h-6.3v2.7h6.3c0.8,0,1.4,0.6,1.4,1.4s-0.6,1.4-1.4,1.4h-6.3v2.7h6.3
		c0.8,0,1.4,0.6,1.4,1.4s-0.6,1.4-1.4,1.4h-6.3v6.1c0,6.3,5.1,11.4,11.4,11.4h2.3c6.3,0,11.4-5.1,11.4-11.4v-6.4H96.2z"/>
	<path class="st7" d="M105.4,94.1c-0.1-0.2-0.3-0.2-0.6-0.2c-0.2,0-0.4,0.1-0.6,0.2c-0.2,0.2-0.2,0.4-0.3,0.6l-0.1,5.9
		c0,6.2-5.1,11.3-11.3,11.3h-4.1c-6.2,0-11.3-5.1-11.3-11.3l-0.3-5.7c0-0.2-0.1-0.4-0.3-0.6c-0.2-0.1-0.4-0.2-0.6-0.2
		c-0.4,0-0.8,0.4-0.8,0.8l0.3,5.7c0,7.1,5.8,12.9,12.9,12.9h4.1c7.1,0,12.9-5.8,12.9-12.9l0.1-5.9C105.7,94.4,105.6,94.2,105.4,94.1
		"/>
	<path class="st7" d="M88.5,114.1c-0.9,0-1.7-0.1-2.6-0.3v2.6c0,1.1,0.9,1.9,1.9,1.9h5.3c1.1,0,1.9-0.9,1.9-1.9v-2.6
		c-0.8,0.2-1.6,0.2-2.5,0.2H88.5z"/>
	<path class="st7" d="M74.5,101.1h-0.6c-1,0-1.8-0.8-1.8-1.8v-2.1c0-1,0.8-1.8,1.8-1.8h0.6V101.1z"/>
	<path class="st7" d="M106.5,95.4h0.6c1,0,1.8,0.8,1.8,1.8v2.1c0,1-0.8,1.8-1.8,1.8h-0.6V95.4z"/>
	<path class="st7" d="M90.5,125.5c0.8,0,1.5,0.1,2.2,0.2V119h-4.4v6.7C89,125.6,89.7,125.5,90.5,125.5"/>
	<path class="st8" d="M80.8,130.5c3.1,0.8,6.4,1.2,9.7,1.2c3.4,0,6.6-0.4,9.7-1.2c-1.4-2.5-5.2-4.4-9.7-4.4
		C86,126.1,82.2,127.9,80.8,130.5"/>
</g>
</svg>
