<?xml version="1.0" encoding="utf-8"?>
<!-- Generator: Adobe Illustrator 24.3.2, SVG Export Plug-In . SVG Version: 6.00 Build 0)  -->
<svg version="1.1" id="Layer_1" xmlns="http://www.w3.org/2000/svg" xmlns:xlink="http://www.w3.org/1999/xlink" x="0px" y="0px"
	 viewBox="0 0 181 181" style="enable-background:new 0 0 181 181;" xml:space="preserve">
<style type="text/css">
	.st0{fill:#008B99;}
	.st1{fill-rule:evenodd;clip-rule:evenodd;fill:#FFFFFF;}
	.st2{fill-rule:evenodd;clip-rule:evenodd;fill:#008B99;}
	.st3{fill-rule:evenodd;clip-rule:evenodd;fill:#FCAC6A;}
	.st4{fill-rule:evenodd;clip-rule:evenodd;fill:#FBDFAF;}
	.st5{fill:#FFFFFF;}
	.st6{fill:#FD3517;}
	.st7{fill-rule:evenodd;clip-rule:evenodd;fill:#FD3517;}
</style>
<g>
	<g>
		<path class="st0" d="M105.3,8.4l0.9-4.5l0.9,0.2c0.7,0.1,1.1,0.3,1.4,0.5c0.4,0.2,0.7,0.6,0.9,1c0.2,0.4,0.2,0.9,0.1,1.4
			c-0.1,0.4-0.3,0.8-0.5,1.1c-0.3,0.3-0.6,0.5-0.9,0.6s-0.8,0.1-1.3,0L105.3,8.4z M105.8,8.1l0.5,0.1c0.6,0.1,1.1,0.2,1.3,0.1
			c0.4,0,0.7-0.2,0.9-0.4c0.3-0.2,0.4-0.6,0.5-1c0.1-0.4,0.1-0.8-0.1-1.2c-0.1-0.3-0.4-0.6-0.7-0.8c-0.3-0.1-0.7-0.3-1.4-0.4
			l-0.3-0.1L105.8,8.1z"/>
		<path class="st0" d="M115.6,9.8l0.3,0.3c-0.2,0.2-0.4,0.3-0.6,0.4c-0.2,0.1-0.4,0.1-0.6,0.2c-0.2,0-0.4,0-0.7-0.1
			c-0.5-0.2-0.9-0.5-1.1-0.9c-0.2-0.4-0.2-0.9-0.1-1.3c0.1-0.4,0.4-0.7,0.7-1c0.4-0.3,0.9-0.4,1.5-0.2c0.6,0.2,0.9,0.5,1.1,1
			c0.1,0.4,0.2,0.8,0,1.2l-2.9-0.9c-0.1,0.4-0.1,0.7,0.1,1c0.2,0.3,0.4,0.5,0.8,0.6c0.2,0,0.3,0.1,0.5,0.1c0.2,0,0.3,0,0.5-0.1
			C115.2,10.1,115.4,10,115.6,9.8z M115.9,8.9c0-0.2,0-0.4-0.1-0.6c-0.1-0.2-0.2-0.3-0.3-0.4c-0.2-0.1-0.3-0.2-0.5-0.3
			c-0.3-0.1-0.6-0.1-0.9,0.1c-0.2,0.1-0.4,0.3-0.6,0.6L115.9,8.9z"/>
		<path class="st0" d="M125.4,9.8l0.8,0.4c0.5,0.2,0.8,0.4,0.9,0.5c0.2,0.2,0.4,0.4,0.4,0.6c0.1,0.2,0,0.5-0.1,0.8
			c-0.1,0.3-0.3,0.5-0.5,0.6s-0.5,0.1-0.8,0.1c-0.2,0-0.6-0.2-1.1-0.4l-0.3-0.1l-0.9,1.9l-0.4-0.2L125.4,9.8z M125.6,10.4l-0.6,1.4
			l0.7,0.3c0.3,0.1,0.5,0.2,0.7,0.2c0.2,0,0.3,0,0.4-0.1c0.1-0.1,0.2-0.2,0.3-0.3c0.1-0.1,0.1-0.3,0.1-0.4c0-0.1-0.1-0.3-0.2-0.4
			c-0.1-0.1-0.3-0.2-0.6-0.3L125.6,10.4z"/>
		<path class="st0" d="M131.7,12.6l0.4,0.2l-0.9,1.7c0.3-0.1,0.5-0.2,0.8-0.2c0.2,0,0.5,0.1,0.7,0.2c0.2,0.1,0.4,0.3,0.5,0.5
			c0.1,0.2,0.2,0.4,0.1,0.7c0,0.2-0.1,0.6-0.4,1l-0.8,1.5l-0.4-0.2l0.8-1.4c0.2-0.3,0.3-0.6,0.3-0.7c0.1-0.2,0.1-0.4,0-0.6
			c-0.1-0.2-0.2-0.3-0.4-0.4c-0.2-0.1-0.5-0.2-0.7-0.1c-0.3,0.1-0.5,0.2-0.7,0.4c-0.1,0.1-0.3,0.4-0.5,0.8l-0.6,1.1l-0.4-0.2
			L131.7,12.6z"/>
		<path class="st0" d="M137,17.2l0.4,0.2l-1.8,2.8l-0.4-0.2L137,17.2z M137.9,16.2c0.1,0.1,0.1,0.1,0.2,0.2c0,0.1,0,0.2,0,0.3
			c-0.1,0.1-0.1,0.1-0.2,0.2c-0.1,0-0.2,0-0.3,0c-0.1-0.1-0.1-0.1-0.2-0.2c0-0.1,0-0.2,0-0.3c0.1-0.1,0.1-0.1,0.2-0.2
			C137.7,16.1,137.8,16.1,137.9,16.2z"/>
		<path class="st0" d="M141.3,18.5l0.4,0.3l-2.7,3.8l-0.4-0.3L141.3,18.5z"/>
		<path class="st0" d="M144,22.2l0.3,0.3l-2.1,2.7l-0.3-0.3L144,22.2z M145,21.2c0.1,0.1,0.1,0.1,0.1,0.2c0,0.1,0,0.2-0.1,0.3
			c-0.1,0.1-0.1,0.1-0.2,0.1c-0.1,0-0.2,0-0.3-0.1c-0.1-0.1-0.1-0.1-0.1-0.2c0-0.1,0-0.2,0.1-0.3c0.1-0.1,0.1-0.1,0.2-0.1
			C144.9,21.1,144.9,21.1,145,21.2z"/>
		<path class="st0" d="M147.4,24.9l0.3,0.3l-0.4,0.5c0.3-0.1,0.5-0.1,0.8,0c0.2,0.1,0.5,0.2,0.7,0.4c0.4,0.3,0.5,0.7,0.6,1.2
			c0,0.5-0.1,0.9-0.5,1.3c-0.3,0.4-0.7,0.6-1.2,0.6s-0.9-0.1-1.3-0.4c-0.2-0.2-0.3-0.4-0.4-0.6c-0.1-0.2-0.1-0.5-0.1-0.8l-1.2,1.3
			l-0.3-0.3L147.4,24.9z M148.5,26.4c-0.3-0.3-0.6-0.4-1-0.3c-0.4,0-0.7,0.2-0.9,0.5c-0.2,0.2-0.3,0.4-0.3,0.6c-0.1,0.2,0,0.5,0,0.7
			c0.1,0.2,0.2,0.4,0.4,0.6c0.2,0.2,0.4,0.3,0.6,0.3c0.2,0,0.5,0,0.7,0c0.2-0.1,0.4-0.2,0.6-0.4c0.2-0.2,0.3-0.4,0.3-0.6
			c0.1-0.2,0-0.5,0-0.7C148.8,26.7,148.7,26.5,148.5,26.4z"/>
		<path class="st0" d="M157,32.9l0.6,0.7c0.2,0.3,0.4,0.5,0.4,0.7c0.1,0.2,0.1,0.4,0,0.6c-0.1,0.2-0.2,0.4-0.3,0.5
			c-0.2,0.1-0.3,0.2-0.5,0.2c-0.2,0-0.4,0-0.6-0.1c0.1,0.2,0.1,0.4,0.1,0.6c0,0.2,0,0.3-0.1,0.5c-0.1,0.2-0.2,0.3-0.3,0.4
			c-0.3,0.2-0.6,0.3-1,0.3c-0.4,0-0.7-0.2-1-0.6l-0.8-1L157,32.9z M155.5,34.8l-1.3,1.1l0.4,0.4c0.2,0.3,0.4,0.4,0.5,0.5
			c0.1,0.1,0.3,0.1,0.5,0.1c0.2,0,0.3-0.1,0.4-0.2c0.2-0.1,0.2-0.3,0.3-0.5c0-0.2,0-0.4-0.1-0.6c-0.1-0.1-0.2-0.4-0.5-0.7
			L155.5,34.8z M157,33.5l-1.1,0.9l0.2,0.2c0.2,0.2,0.4,0.4,0.5,0.5c0.1,0.1,0.3,0.1,0.4,0.1c0.2,0,0.3-0.1,0.4-0.2
			c0.2-0.1,0.2-0.3,0.2-0.5c0-0.2-0.1-0.4-0.3-0.6L157,33.5z"/>
		<path class="st0" d="M161.3,38l0.3,0.3l-3.8,2.8l-0.3-0.3L161.3,38z"/>
		<path class="st0" d="M163.7,43.7c0.3,0.4,0.4,0.9,0.2,1.4c-0.1,0.4-0.4,0.8-0.8,1c-0.4,0.3-0.8,0.3-1.3,0.3
			c-0.5-0.1-0.8-0.3-1.1-0.8c-0.3-0.4-0.4-0.9-0.2-1.4c0.1-0.5,0.4-0.8,0.8-1.1c0.4-0.3,0.8-0.3,1.3-0.3
			C163,43,163.4,43.2,163.7,43.7z M163.3,43.9c-0.2-0.3-0.5-0.5-0.8-0.6c-0.4-0.1-0.7,0-1,0.2c-0.2,0.1-0.4,0.3-0.5,0.5
			c-0.1,0.2-0.2,0.4-0.2,0.7c0,0.2,0.1,0.4,0.2,0.7c0.1,0.2,0.3,0.4,0.5,0.5c0.2,0.1,0.4,0.2,0.7,0.1c0.2,0,0.5-0.1,0.7-0.2
			c0.3-0.2,0.5-0.5,0.6-0.8C163.6,44.5,163.5,44.2,163.3,43.9z"/>
		<path class="st0" d="M165.9,52.1l0,0.4c-0.3,0-0.5,0-0.7-0.1c-0.2-0.1-0.4-0.2-0.5-0.3c-0.2-0.1-0.3-0.3-0.4-0.5
			c-0.3-0.5-0.3-1-0.1-1.4c0.2-0.4,0.5-0.8,0.9-1c0.4-0.2,0.8-0.3,1.2-0.2c0.5,0.1,0.9,0.4,1.2,0.9c0.3,0.5,0.3,1,0.1,1.5
			c-0.2,0.4-0.4,0.6-0.8,0.9l-1.4-2.7c-0.3,0.2-0.6,0.5-0.7,0.8c-0.1,0.3-0.1,0.7,0.1,1c0.1,0.2,0.2,0.3,0.3,0.4
			c0.1,0.1,0.3,0.2,0.4,0.3C165.4,52.1,165.6,52.1,165.9,52.1z M166.7,51.7c0.2-0.2,0.3-0.3,0.4-0.5c0.1-0.2,0.1-0.3,0.1-0.5
			c0-0.2-0.1-0.4-0.2-0.6c-0.2-0.3-0.4-0.5-0.7-0.6c-0.2-0.1-0.5-0.1-0.8,0L166.7,51.7z"/>
		<path class="st0" d="M169.8,55.1l0.2,0.4l-0.5,0.2c0.3,0.1,0.5,0.1,0.6,0.3c0.2,0.2,0.4,0.3,0.4,0.6c0.1,0.2,0.1,0.3,0.1,0.5
			c0,0.2,0,0.3-0.1,0.4c-0.1,0.1-0.2,0.3-0.3,0.4c0.3,0,0.6,0.1,0.8,0.3c0.2,0.1,0.4,0.3,0.5,0.6c0.1,0.2,0.1,0.4,0.1,0.6
			s-0.1,0.4-0.3,0.6c-0.2,0.2-0.4,0.3-0.8,0.5l-1.7,0.7l-0.2-0.4l1.7-0.7c0.3-0.1,0.6-0.3,0.7-0.4c0.1-0.1,0.2-0.2,0.2-0.4
			c0-0.1,0-0.3-0.1-0.5c-0.1-0.2-0.2-0.3-0.4-0.5c-0.2-0.1-0.4-0.2-0.6-0.2c-0.2,0-0.6,0.1-1,0.3l-1.2,0.5l-0.2-0.4l1.6-0.7
			c0.4-0.2,0.6-0.3,0.7-0.4c0.1-0.1,0.2-0.2,0.2-0.4c0-0.2,0-0.3-0.1-0.5c-0.1-0.2-0.2-0.3-0.4-0.5c-0.2-0.1-0.4-0.2-0.6-0.2
			c-0.2,0-0.5,0.1-0.9,0.2l-1.3,0.5l-0.2-0.4L169.8,55.1z"/>
		<path class="st0" d="M171.7,66.9l-0.1,0.4c-0.3,0-0.5-0.1-0.7-0.2c-0.2-0.1-0.3-0.2-0.5-0.4c-0.1-0.2-0.2-0.4-0.3-0.6
			c-0.2-0.5-0.1-1,0.1-1.4s0.6-0.7,1-0.8c0.4-0.1,0.8-0.1,1.2,0c0.5,0.2,0.8,0.6,1,1.1c0.2,0.5,0.1,1.1-0.2,1.5
			c-0.2,0.3-0.6,0.6-1,0.7l-0.9-2.9c-0.4,0.1-0.6,0.3-0.8,0.6c-0.2,0.3-0.2,0.6-0.1,1c0.1,0.2,0.1,0.3,0.2,0.5
			c0.1,0.1,0.2,0.2,0.3,0.3C171.3,66.8,171.5,66.9,171.7,66.9z M172.6,66.6c0.2-0.1,0.4-0.3,0.5-0.4c0.1-0.1,0.2-0.3,0.2-0.5
			c0-0.2,0-0.4,0-0.6c-0.1-0.3-0.3-0.6-0.6-0.7c-0.2-0.1-0.5-0.2-0.8-0.2L172.6,66.6z"/>
		<path class="st0" d="M175,70.5l0.1,0.4l-0.6,0.1c0.3,0.1,0.5,0.3,0.6,0.5c0.2,0.2,0.3,0.4,0.3,0.6c0.1,0.2,0,0.5,0,0.7
			c-0.1,0.2-0.2,0.4-0.4,0.5c-0.2,0.1-0.5,0.3-1,0.4l-1.7,0.4l-0.1-0.4l1.6-0.3c0.4-0.1,0.6-0.2,0.7-0.2c0.2-0.1,0.3-0.2,0.4-0.4
			c0.1-0.2,0.1-0.4,0-0.6c-0.1-0.3-0.2-0.5-0.4-0.6c-0.2-0.2-0.5-0.3-0.7-0.3c-0.2,0-0.5,0-0.9,0.1l-1.2,0.3l-0.1-0.4L175,70.5z"/>
		<path class="st0" d="M178.1,80.5l-4.6,0.6l-0.1-0.4l0.6-0.1c-0.2-0.2-0.4-0.3-0.6-0.5c-0.1-0.2-0.2-0.4-0.3-0.7
			c-0.1-0.5,0.1-0.9,0.4-1.3c0.3-0.4,0.7-0.6,1.2-0.7c0.5-0.1,0.9,0,1.3,0.3c0.4,0.3,0.6,0.7,0.7,1.1c0,0.3,0,0.5-0.1,0.8
			c-0.1,0.2-0.2,0.5-0.4,0.7l1.9-0.3L178.1,80.5z M176.2,79c0-0.2-0.1-0.5-0.3-0.6c-0.1-0.2-0.3-0.3-0.6-0.4
			c-0.2-0.1-0.5-0.1-0.7-0.1c-0.2,0-0.5,0.1-0.7,0.3c-0.2,0.1-0.3,0.3-0.4,0.6c-0.1,0.2-0.1,0.4-0.1,0.7c0,0.2,0.1,0.5,0.3,0.6
			c0.1,0.2,0.3,0.3,0.5,0.4c0.2,0.1,0.5,0.1,0.7,0.1c0.4-0.1,0.7-0.2,0.9-0.5C176.2,79.7,176.3,79.4,176.2,79z"/>
		<path class="st0" d="M177.4,88.1l-3.4,0.2l0-0.4l0.6,0c-0.2-0.2-0.4-0.4-0.5-0.6c-0.1-0.2-0.2-0.5-0.2-0.7c0-0.5,0.1-0.9,0.5-1.2
			c0.3-0.4,0.7-0.5,1.2-0.6c0.5,0,0.9,0.1,1.3,0.5c0.4,0.3,0.6,0.7,0.6,1.2c0,0.3,0,0.5-0.1,0.8c-0.1,0.2-0.3,0.4-0.5,0.6l0.6,0
			L177.4,88.1z M176.9,86.4c0-0.2-0.1-0.5-0.2-0.7c-0.1-0.2-0.3-0.4-0.5-0.5c-0.2-0.1-0.4-0.2-0.7-0.1c-0.2,0-0.5,0.1-0.7,0.2
			c-0.2,0.1-0.4,0.3-0.5,0.5c-0.1,0.2-0.2,0.4-0.1,0.7c0,0.2,0.1,0.5,0.2,0.7c0.1,0.2,0.3,0.4,0.5,0.5s0.4,0.2,0.7,0.1
			c0.4,0,0.7-0.2,1-0.4C176.8,87.1,177,86.8,176.9,86.4z"/>
		<path class="st0" d="M178.7,92.1l0,0.4l-4.7-0.1l0-0.4L178.7,92.1z"/>
		<path class="st0" d="M177.9,101.5l-0.1,0.9c-0.1,0.5-0.1,0.9-0.2,1c-0.1,0.2-0.3,0.4-0.5,0.6c-0.2,0.1-0.5,0.2-0.8,0.1
			c-0.3,0-0.5-0.2-0.7-0.3c-0.2-0.2-0.3-0.4-0.3-0.7c0-0.2,0-0.6,0.1-1.2l0-0.3l-2.1-0.3l0.1-0.5L177.9,101.5z M177.4,101.9
			l-1.5-0.2l-0.1,0.8c0,0.3,0,0.5,0,0.7c0,0.2,0.1,0.3,0.2,0.4c0.1,0.1,0.2,0.2,0.4,0.2c0.2,0,0.3,0,0.4-0.1
			c0.1-0.1,0.2-0.2,0.3-0.3c0.1-0.1,0.1-0.3,0.2-0.6L177.4,101.9z"/>
		<path class="st0" d="M175.7,107.8l-0.1,0.4l-0.5-0.1c0.2,0.2,0.3,0.3,0.3,0.5c0.1,0.2,0.1,0.3,0,0.5c0,0.1-0.1,0.2-0.2,0.4
			l-0.3-0.3c0.1-0.1,0.1-0.2,0.1-0.2c0-0.1,0-0.3-0.1-0.4c-0.1-0.2-0.2-0.3-0.5-0.4c-0.2-0.1-0.6-0.2-1.1-0.3l-1.1-0.2l0.1-0.4
			L175.7,107.8z"/>
		<path class="st0" d="M174.5,112.8l-0.1,0.4l-3.3-0.9l0.1-0.4L174.5,112.8z M175.8,113.3c0,0.1-0.1,0.2-0.2,0.2
			c-0.1,0-0.2,0.1-0.3,0c-0.1,0-0.2-0.1-0.2-0.2c-0.1-0.1-0.1-0.2,0-0.3c0-0.1,0.1-0.2,0.2-0.2c0.1,0,0.2-0.1,0.3,0
			c0.1,0,0.2,0.1,0.2,0.2C175.8,113.1,175.8,113.2,175.8,113.3z"/>
		<path class="st0" d="M173.3,116.9l-0.1,0.4l-3.7-1.2c-0.3-0.1-0.4-0.2-0.5-0.3s-0.1-0.3-0.1-0.5c0-0.1,0.1-0.3,0.3-0.4l0.4,0.1
			c-0.1,0.1-0.2,0.2-0.2,0.3c0,0.1,0,0.2,0.1,0.3c0,0.1,0.2,0.1,0.4,0.2L173.3,116.9z M174.6,117.5c0,0.1-0.1,0.2-0.2,0.2
			c-0.1,0-0.2,0.1-0.3,0c-0.1,0-0.2-0.1-0.2-0.2c0-0.1-0.1-0.2,0-0.3c0-0.1,0.1-0.2,0.2-0.2c0.1,0,0.2-0.1,0.3,0
			c0.1,0,0.2,0.1,0.2,0.2C174.6,117.3,174.6,117.4,174.6,117.5z"/>
		<path class="st0" d="M170.9,122.5l-0.2-0.4c0.3-0.1,0.5-0.3,0.6-0.5c0.1-0.1,0.1-0.3,0-0.4c-0.1-0.1-0.1-0.2-0.2-0.3
			c-0.1,0-0.2,0-0.3,0c-0.1,0-0.3,0.2-0.5,0.4c-0.3,0.2-0.5,0.4-0.7,0.4c-0.2,0-0.4,0-0.6,0c-0.3-0.1-0.4-0.3-0.6-0.5
			c-0.1-0.2-0.1-0.5,0-0.8c0.1-0.2,0.2-0.3,0.3-0.5c0.1-0.1,0.3-0.2,0.5-0.3l0.2,0.4c-0.3,0.1-0.5,0.3-0.6,0.5
			c-0.1,0.2-0.1,0.3,0,0.5c0.1,0.2,0.2,0.3,0.3,0.3c0.1,0,0.2,0,0.4,0c0.1,0,0.3-0.2,0.5-0.4c0.3-0.2,0.5-0.4,0.7-0.4
			c0.2,0,0.4,0,0.5,0c0.2,0.1,0.4,0.3,0.5,0.5c0.1,0.2,0.1,0.5,0,0.7C171.6,122.1,171.3,122.3,170.9,122.5z"/>
		<path class="st0" d="M166.6,131.7l-0.1-0.4c0.3-0.1,0.5-0.3,0.6-0.5c0.1-0.1,0.1-0.3,0-0.4c0-0.1-0.1-0.2-0.2-0.3
			c-0.1,0-0.2-0.1-0.3,0c-0.1,0-0.3,0.1-0.6,0.3c-0.3,0.2-0.5,0.3-0.7,0.4c-0.2,0-0.4,0-0.6-0.1c-0.2-0.1-0.4-0.3-0.5-0.6
			c-0.1-0.3-0.1-0.5,0.1-0.8c0.1-0.2,0.2-0.3,0.4-0.4c0.2-0.1,0.3-0.2,0.5-0.2l0.2,0.4c-0.3,0.1-0.5,0.2-0.7,0.5
			c-0.1,0.2-0.1,0.3-0.1,0.5c0,0.2,0.1,0.3,0.3,0.3c0.1,0.1,0.2,0.1,0.4,0c0.1,0,0.3-0.1,0.6-0.3c0.3-0.2,0.5-0.3,0.7-0.3
			c0.2,0,0.4,0,0.5,0.1c0.2,0.1,0.4,0.3,0.5,0.5c0.1,0.2,0,0.5-0.1,0.7C167.3,131.4,167,131.6,166.6,131.7z"/>
		<path class="st0" d="M165.9,136.3l-0.2,0.4l-1.1-0.7l-0.4,0.6l-0.3-0.2l0.4-0.6l-2.6-1.6l0.2-0.4l2.6,1.6l0.3-0.5l0.3,0.2
			l-0.3,0.5L165.9,136.3z"/>
		<path class="st0" d="M162.2,139.6L162,140l-2.8-1.9l0.2-0.4L162.2,139.6z M163.3,140.6c-0.1,0.1-0.1,0.1-0.2,0.1
			c-0.1,0-0.2,0-0.3-0.1c-0.1-0.1-0.1-0.1-0.1-0.2c0-0.1,0-0.2,0.1-0.3c0.1-0.1,0.1-0.1,0.2-0.1c0.1,0,0.2,0,0.3,0.1
			c0.1,0.1,0.1,0.1,0.2,0.2C163.3,140.4,163.3,140.5,163.3,140.6z"/>
		<path class="st0" d="M159.7,143.2l-0.3,0.3l-0.5-0.4c0.1,0.3,0.1,0.5,0.1,0.7c0,0.3-0.1,0.5-0.3,0.7c-0.1,0.1-0.2,0.2-0.4,0.3
			c-0.1,0.1-0.3,0.1-0.4,0.1c-0.1,0-0.3,0-0.5-0.1c0.1,0.3,0.2,0.5,0.1,0.8c0,0.3-0.1,0.5-0.3,0.7c-0.1,0.2-0.3,0.3-0.5,0.4
			c-0.2,0.1-0.4,0.1-0.6,0c-0.2-0.1-0.5-0.2-0.8-0.5l-1.4-1.2l0.3-0.3l1.4,1.2c0.3,0.2,0.5,0.4,0.6,0.4c0.1,0,0.3,0,0.4,0
			c0.1,0,0.3-0.1,0.4-0.3c0.1-0.2,0.2-0.4,0.2-0.6c0-0.2,0-0.4-0.1-0.6c-0.1-0.2-0.4-0.4-0.7-0.7l-1-0.8l0.3-0.3l1.3,1.1
			c0.3,0.3,0.5,0.4,0.7,0.5c0.1,0.1,0.3,0.1,0.4,0c0.1,0,0.3-0.1,0.4-0.3c0.1-0.2,0.2-0.3,0.2-0.6c0-0.2,0-0.4-0.1-0.6
			c-0.1-0.2-0.3-0.4-0.7-0.7l-1.1-0.9l0.3-0.3L159.7,143.2z"/>
		<path class="st0" d="M153.8,150.1l-0.3,0.3l-1.1-1.1c-0.3-0.3-0.5-0.4-0.6-0.5c-0.2-0.1-0.4-0.1-0.6-0.1c-0.2,0-0.4,0.2-0.6,0.3
			c-0.2,0.2-0.3,0.4-0.3,0.6c0,0.2,0,0.4,0.1,0.6c0.1,0.1,0.2,0.3,0.5,0.6l1.1,1.1l-0.3,0.3l-1.2-1.2c-0.3-0.3-0.5-0.6-0.6-0.8
			c-0.1-0.2-0.1-0.5-0.1-0.7c0.1-0.2,0.2-0.5,0.4-0.7c0.2-0.2,0.5-0.4,0.7-0.5c0.2-0.1,0.5-0.1,0.7,0c0.2,0.1,0.5,0.3,0.9,0.6
			L153.8,150.1z"/>
		<path class="st0" d="M149.8,155.9l-0.3,0.3l-3.1-3.5l0.3-0.3L149.8,155.9z"/>
		<path class="st0" d="M141.9,157.8l-0.4,0.1c-0.1-0.3-0.1-0.5,0-0.7c0-0.2,0.1-0.4,0.2-0.6c0.1-0.2,0.3-0.3,0.5-0.5
			c0.4-0.3,0.9-0.5,1.3-0.4c0.5,0.1,0.8,0.3,1.1,0.7c0.3,0.3,0.4,0.7,0.4,1.1c0,0.5-0.2,1-0.7,1.3c-0.5,0.4-0.9,0.5-1.5,0.3
			c-0.4-0.1-0.7-0.3-1-0.7l2.4-1.9c-0.2-0.3-0.5-0.5-0.9-0.5s-0.7,0-0.9,0.3c-0.1,0.1-0.2,0.2-0.3,0.4s-0.1,0.3-0.2,0.4
			C141.9,157.4,141.9,157.6,141.9,157.8z M142.5,158.5c0.2,0.1,0.4,0.2,0.5,0.3s0.4,0,0.6,0c0.2,0,0.4-0.1,0.5-0.3
			c0.3-0.2,0.4-0.5,0.5-0.8c0-0.2,0-0.5-0.1-0.8L142.5,158.5z"/>
		<path class="st0" d="M136.2,161.9l-0.4,0c0-0.3,0-0.5,0-0.7c0.1-0.2,0.1-0.4,0.3-0.6c0.1-0.2,0.3-0.3,0.5-0.5
			c0.5-0.3,0.9-0.4,1.4-0.3c0.5,0.1,0.8,0.4,1.1,0.8c0.2,0.4,0.3,0.7,0.3,1.2c0,0.5-0.3,1-0.8,1.3c-0.5,0.3-1,0.4-1.5,0.2
			c-0.4-0.1-0.7-0.4-0.9-0.8l2.5-1.7c-0.2-0.3-0.5-0.5-0.8-0.6c-0.3-0.1-0.7,0-1,0.2c-0.1,0.1-0.3,0.2-0.4,0.4
			c-0.1,0.1-0.2,0.3-0.2,0.4C136.2,161.4,136.2,161.6,136.2,161.9z M136.7,162.6c0.2,0.2,0.3,0.3,0.5,0.3c0.2,0.1,0.4,0.1,0.6,0
			c0.2,0,0.4-0.1,0.5-0.2c0.3-0.2,0.5-0.4,0.5-0.7c0.1-0.2,0-0.5-0.1-0.8L136.7,162.6z"/>
		<path class="st0" d="M133.8,165.9l-0.4,0.2l-0.2-0.4c0,0.2-0.1,0.4-0.2,0.6c-0.1,0.2-0.2,0.3-0.3,0.4c-0.1,0.1-0.2,0.1-0.4,0.1
			l0-0.4c0.1,0,0.2,0,0.2-0.1c0.1-0.1,0.2-0.2,0.3-0.4c0.1-0.2,0.1-0.4,0-0.6c0-0.2-0.2-0.5-0.5-1.1l-0.6-1l0.4-0.2L133.8,165.9z"/>
		<path class="st0" d="M129.5,169.6l-0.4,0.2l-0.6-1.1L128,169l-0.2-0.3l0.6-0.3l-1.3-2.7l0.4-0.2l1.3,2.7l0.5-0.3l0.2,0.3l-0.5,0.3
			L129.5,169.6z"/>
		<path class="st0" d="M120.2,172.2l-0.4,0.1l-1.3-3.7c-0.1-0.3-0.1-0.5-0.1-0.6c0.1-0.2,0.2-0.3,0.3-0.3c0.1,0,0.3-0.1,0.5-0.1
			l0.1,0.4c-0.1,0-0.2,0-0.3,0c-0.1,0-0.2,0.1-0.2,0.2c0,0.1,0,0.2,0.1,0.4L120.2,172.2z M120.4,173.6c-0.1,0-0.2,0-0.3,0
			c-0.1,0-0.2-0.1-0.2-0.2c0-0.1,0-0.2,0-0.3c0-0.1,0.1-0.2,0.2-0.2c0.1,0,0.2,0,0.3,0c0.1,0,0.1,0.1,0.2,0.2c0,0.1,0,0.2,0,0.3
			C120.6,173.5,120.5,173.6,120.4,173.6z"/>
		<path class="st0" d="M114.5,174.2c-0.5,0.1-1,0.1-1.4-0.2c-0.4-0.2-0.7-0.6-0.8-1c-0.1-0.5-0.1-0.9,0.1-1.3
			c0.2-0.4,0.6-0.7,1.1-0.9c0.5-0.1,1-0.1,1.4,0.2c0.4,0.2,0.7,0.6,0.8,1.1c0.1,0.4,0.1,0.9-0.1,1.3
			C115.4,173.7,115,174,114.5,174.2z M114.4,173.8c0.3-0.1,0.6-0.3,0.8-0.6s0.2-0.7,0.1-1c-0.1-0.2-0.2-0.4-0.4-0.6
			c-0.2-0.2-0.4-0.3-0.6-0.3c-0.2-0.1-0.5,0-0.7,0c-0.2,0.1-0.4,0.2-0.6,0.3c-0.2,0.2-0.3,0.4-0.3,0.6c-0.1,0.2,0,0.5,0,0.7
			c0.1,0.4,0.3,0.6,0.6,0.8C113.7,173.8,114,173.9,114.4,173.8z"/>
		<path class="st0" d="M109,175.5l-0.4,0.1l-0.1-0.6c-0.1,0.3-0.3,0.5-0.5,0.6c-0.2,0.2-0.4,0.3-0.6,0.3c-0.2,0-0.5,0-0.7-0.1
			c-0.2-0.1-0.4-0.2-0.5-0.4c-0.1-0.2-0.2-0.5-0.3-1l-0.3-1.7l0.4-0.1l0.3,1.6c0.1,0.4,0.1,0.6,0.2,0.8c0.1,0.2,0.2,0.4,0.4,0.4
			c0.2,0.1,0.4,0.1,0.6,0.1c0.3-0.1,0.5-0.2,0.6-0.4c0.2-0.2,0.3-0.4,0.3-0.7c0-0.2,0-0.5-0.1-0.9l-0.2-1.2l0.4-0.1L109,175.5z"/>
		<path class="st0" d="M99.2,177l-0.4,0.1l-0.3-2.7c-0.1-0.5-0.1-0.8,0-1c0.1-0.3,0.2-0.6,0.5-0.8c0.3-0.2,0.6-0.3,1-0.4
			c0.3,0,0.5,0,0.8,0c0.2,0.1,0.4,0.1,0.6,0.3c0.2,0.1,0.3,0.3,0.5,0.6l-0.5,0.1c-0.2-0.2-0.3-0.4-0.6-0.4c-0.2-0.1-0.5-0.1-0.8-0.1
			c-0.3,0-0.5,0.1-0.7,0.2c-0.2,0.1-0.3,0.3-0.4,0.5c-0.1,0.2-0.1,0.4,0,0.8l0,0.2c0.1-0.2,0.3-0.4,0.5-0.5c0.2-0.1,0.5-0.2,0.7-0.3
			c0.3,0,0.6,0,0.9,0.1c0.3,0.1,0.5,0.3,0.7,0.5c0.2,0.2,0.3,0.5,0.3,0.8c0,0.3,0,0.6-0.1,0.9c-0.1,0.3-0.3,0.5-0.6,0.7
			c-0.3,0.2-0.5,0.3-0.8,0.3c-0.3,0-0.5,0-0.7-0.1c-0.2-0.1-0.5-0.2-0.7-0.4L99.2,177z M100.4,176.6c0.2,0,0.5-0.1,0.7-0.3
			c0.2-0.1,0.3-0.3,0.4-0.5c0.1-0.2,0.1-0.5,0.1-0.7c0-0.4-0.2-0.7-0.5-0.9c-0.3-0.2-0.6-0.3-1-0.2c-0.4,0-0.7,0.2-0.9,0.5
			c-0.2,0.3-0.3,0.6-0.3,1c0,0.3,0.1,0.5,0.2,0.7c0.1,0.2,0.3,0.3,0.5,0.4C100,176.6,100.2,176.6,100.4,176.6z"/>
		<path class="st0" d="M89.8,178.9c-0.1,0-0.2,0-0.3-0.1c-0.1-0.1-0.1-0.2-0.1-0.3c0-0.1,0-0.2,0.1-0.2c0.1-0.1,0.2-0.1,0.3-0.1
			c0.1,0,0.2,0,0.3,0.1c0.1,0.1,0.1,0.2,0.1,0.3c0,0.1,0,0.2-0.1,0.3C90,178.8,89.9,178.9,89.8,178.9z M90,177.5l-0.4,0l0-3.9
			c0-0.3,0.1-0.5,0.2-0.6c0.1-0.1,0.2-0.2,0.4-0.2c0.1,0,0.3,0,0.5,0.1l0,0.4c-0.1-0.1-0.2-0.1-0.3-0.1c-0.1,0-0.2,0-0.3,0.1
			c0,0.1-0.1,0.2-0.1,0.4L90,177.5z"/>
		<path class="st0" d="M84,177.3c-0.5,0-0.9-0.3-1.2-0.7c-0.3-0.4-0.4-0.8-0.4-1.3c0-0.5,0.2-0.9,0.6-1.2c0.4-0.3,0.8-0.5,1.3-0.4
			c0.5,0,0.9,0.2,1.2,0.6c0.3,0.4,0.4,0.8,0.4,1.3c0,0.5-0.2,0.9-0.6,1.2C85,177.2,84.5,177.4,84,177.3z M84.1,176.9
			c0.4,0,0.7-0.1,1-0.3c0.3-0.2,0.4-0.6,0.5-0.9c0-0.2,0-0.5-0.1-0.7c-0.1-0.2-0.2-0.4-0.4-0.5c-0.2-0.1-0.4-0.2-0.6-0.2
			c-0.2,0-0.5,0-0.7,0.1c-0.2,0.1-0.4,0.2-0.5,0.5c-0.1,0.2-0.2,0.4-0.2,0.7c0,0.4,0.1,0.7,0.3,1C83.4,176.7,83.7,176.9,84.1,176.9z
			"/>
		<path class="st0" d="M78.5,176.7l-0.4-0.1l0.2-1.6c0.1-0.4,0.1-0.6,0.1-0.8c0-0.2-0.1-0.4-0.3-0.5c-0.2-0.1-0.4-0.2-0.6-0.3
			c-0.2,0-0.5,0-0.6,0.1c-0.2,0.1-0.3,0.2-0.4,0.4c-0.1,0.1-0.1,0.4-0.2,0.8l-0.2,1.6l-0.4-0.1l0.3-1.6c0.1-0.5,0.2-0.8,0.3-1
			c0.1-0.2,0.3-0.4,0.6-0.5c0.2-0.1,0.5-0.1,0.8-0.1c0.3,0.1,0.6,0.2,0.8,0.3c0.2,0.2,0.3,0.4,0.4,0.6c0.1,0.3,0.1,0.6,0,1.1
			L78.5,176.7z"/>
		<path class="st0" d="M71.7,175.4l-0.4-0.1l0.1-0.5c-0.2,0.2-0.3,0.3-0.5,0.3c-0.2,0.1-0.3,0.1-0.5,0c-0.1,0-0.2-0.1-0.3-0.2
			l0.3-0.3c0.1,0.1,0.1,0.1,0.2,0.1c0.1,0,0.3,0,0.4-0.1c0.2-0.1,0.3-0.2,0.4-0.5c0.1-0.2,0.2-0.5,0.3-1.1l0.3-1.1l0.4,0.1
			L71.7,175.4z"/>
		<path class="st0" d="M66.6,174.1l-0.4-0.1l0.2-0.6c-0.2,0.2-0.5,0.3-0.7,0.3c-0.2,0-0.5,0-0.7,0c-0.2-0.1-0.4-0.2-0.6-0.4
			c-0.1-0.2-0.2-0.4-0.3-0.6c0-0.2,0-0.6,0.2-1l0.5-1.7l0.4,0.1l-0.5,1.5c-0.1,0.4-0.2,0.6-0.2,0.8c0,0.2,0,0.4,0.1,0.6
			c0.1,0.1,0.3,0.3,0.5,0.3c0.3,0.1,0.5,0.1,0.8,0c0.2-0.1,0.4-0.3,0.6-0.5c0.1-0.1,0.2-0.4,0.3-0.9l0.4-1.2l0.4,0.1L66.6,174.1z"/>
		<path class="st0" d="M56.9,170.7l1.2-3.1l0.4,0.2l-0.2,0.5c0.3-0.1,0.5-0.2,0.8-0.2c0.3,0,0.5,0,0.8,0.1c0.4,0.2,0.8,0.5,0.9,0.9
			c0.2,0.4,0.2,0.9,0,1.4c-0.2,0.5-0.5,0.8-0.9,1c-0.4,0.2-0.9,0.2-1.3,0c-0.3-0.1-0.5-0.3-0.6-0.4c-0.2-0.2-0.3-0.4-0.4-0.7
			l-0.2,0.6L56.9,170.7z M58.6,171.1c0.2,0.1,0.5,0.1,0.7,0.1c0.2,0,0.4-0.1,0.6-0.3c0.2-0.2,0.3-0.3,0.4-0.6
			c0.1-0.2,0.1-0.5,0.1-0.7c0-0.2-0.1-0.5-0.3-0.7c-0.1-0.2-0.3-0.3-0.5-0.4c-0.2-0.1-0.5-0.1-0.7-0.1c-0.2,0-0.5,0.1-0.6,0.3
			c-0.2,0.1-0.3,0.3-0.4,0.6c-0.1,0.4-0.1,0.7,0,1.1C58,170.7,58.3,170.9,58.6,171.1z"/>
		<path class="st0" d="M52.7,170.2l-0.4-0.2l2-4.2l0.4,0.2L52.7,170.2z"/>
		<path class="st0" d="M48.5,168.2c-0.1,0-0.1-0.1-0.2-0.2c0-0.1,0-0.2,0-0.3c0-0.1,0.1-0.1,0.2-0.2c0.1,0,0.2,0,0.3,0
			c0.1,0,0.1,0.1,0.2,0.2c0,0.1,0,0.2,0,0.3c0,0.1-0.1,0.1-0.2,0.2C48.7,168.3,48.6,168.3,48.5,168.2z M49.4,167.1l-0.4-0.2l1.6-3
			l0.4,0.2L49.4,167.1z"/>
		<path class="st0" d="M44.3,163.8l0.4-0.1c0.1,0.3,0.2,0.5,0.4,0.6c0.1,0.1,0.2,0.1,0.4,0.1c0.1,0,0.2-0.1,0.3-0.2
			c0.1-0.1,0.1-0.2,0.1-0.3c0-0.1-0.1-0.3-0.3-0.6c-0.2-0.3-0.3-0.6-0.3-0.8c0-0.2,0-0.4,0.1-0.5c0.1-0.2,0.3-0.4,0.6-0.4
			c0.3-0.1,0.5,0,0.8,0.1c0.2,0.1,0.3,0.2,0.4,0.4c0.1,0.2,0.2,0.3,0.2,0.5l-0.4,0.1c-0.1-0.3-0.2-0.6-0.4-0.7
			c-0.1-0.1-0.3-0.1-0.5-0.1c-0.2,0-0.3,0.1-0.4,0.2c-0.1,0.1-0.1,0.2-0.1,0.3c0,0.1,0.1,0.3,0.3,0.6c0.2,0.3,0.3,0.5,0.3,0.7
			c0,0.2,0,0.4-0.1,0.5c-0.1,0.2-0.3,0.4-0.6,0.4c-0.2,0.1-0.5,0-0.7-0.1C44.6,164.5,44.5,164.2,44.3,163.8z"/>
		<path class="st0" d="M39.9,162.8l-0.4-0.2l0.7-1l-0.6-0.4l0.2-0.3l0.6,0.4l1.7-2.5l0.4,0.2l-1.7,2.5l0.5,0.3l-0.2,0.3l-0.5-0.3
			L39.9,162.8z"/>
		<path class="st0" d="M35.8,159.9c-0.1-0.1-0.1-0.1-0.1-0.2c0-0.1,0-0.2,0.1-0.3c0.1-0.1,0.1-0.1,0.2-0.1c0.1,0,0.2,0,0.3,0.1
			c0.1,0.1,0.1,0.1,0.1,0.2c0,0.1,0,0.2-0.1,0.3c-0.1,0.1-0.1,0.1-0.2,0.1C36,160,35.9,159.9,35.8,159.9z M36.8,158.9l-0.3-0.3
			l2.1-2.6l0.3,0.3L36.8,158.9z"/>
		<path class="st0" d="M32.8,152.6l-0.1-0.4c0.2-0.1,0.5-0.1,0.7-0.1c0.2,0,0.4,0,0.6,0.1c0.2,0.1,0.4,0.2,0.6,0.4
			c0.4,0.4,0.6,0.8,0.6,1.3c0,0.5-0.2,0.9-0.5,1.2c-0.3,0.3-0.6,0.5-1.1,0.6c-0.5,0.1-1,0-1.4-0.4c-0.4-0.4-0.6-0.9-0.6-1.4
			c0-0.4,0.2-0.8,0.5-1.1l2.3,2c0.3-0.3,0.4-0.6,0.4-1c0-0.3-0.2-0.6-0.4-0.9c-0.1-0.1-0.3-0.2-0.4-0.3c-0.2-0.1-0.3-0.1-0.5-0.1
			C33.3,152.4,33.1,152.5,32.8,152.6z M32.2,153.2c-0.1,0.2-0.2,0.4-0.2,0.6c0,0.2,0,0.4,0.1,0.5c0.1,0.2,0.2,0.3,0.3,0.5
			c0.2,0.2,0.5,0.3,0.8,0.3c0.2,0,0.5-0.1,0.8-0.3L32.2,153.2z"/>
		<path class="st0" d="M27.2,152.1l-0.3-0.3l1.9-1.8l-2.1-0.2l-0.4-0.5l2.4,0.2l-0.1-2.6l0.4,0.4l0.1,2.3l1.1-1l0.3,0.3L27.2,152.1z
			"/>
		<path class="st0" d="M21,142.8l-0.3-0.4l0.5-0.4c-0.3,0-0.5-0.1-0.8-0.2c-0.2-0.1-0.4-0.3-0.6-0.5c-0.3-0.4-0.4-0.8-0.3-1.3
			c0.1-0.5,0.3-0.9,0.7-1.1c0.4-0.3,0.8-0.4,1.3-0.3c0.5,0.1,0.9,0.3,1.1,0.7c0.2,0.2,0.3,0.5,0.3,0.7c0,0.2,0,0.5,0,0.8l1.5-1.1
			l0.3,0.4L21,142.8z M20.2,141.1c0.2,0.3,0.5,0.5,0.9,0.5c0.4,0.1,0.7,0,1-0.3c0.2-0.1,0.4-0.3,0.5-0.5c0.1-0.2,0.1-0.4,0.1-0.7
			c0-0.2-0.1-0.5-0.2-0.7c-0.1-0.2-0.3-0.3-0.5-0.4c-0.2-0.1-0.4-0.1-0.7-0.1c-0.2,0-0.5,0.1-0.7,0.3c-0.2,0.1-0.3,0.3-0.4,0.5
			c-0.1,0.2-0.1,0.5-0.1,0.7C20,140.7,20.1,141,20.2,141.1z"/>
		<path class="st0" d="M16.9,136.8l-0.2-0.4l0.4-0.3c-0.2,0-0.4-0.1-0.6-0.1c-0.2-0.1-0.3-0.2-0.4-0.3c-0.1-0.1-0.1-0.2-0.1-0.4
			l0.4,0c0,0.1,0,0.2,0.1,0.2c0.1,0.1,0.2,0.2,0.4,0.3c0.2,0.1,0.4,0,0.6,0c0.2-0.1,0.5-0.2,1-0.5l1-0.6l0.2,0.4L16.9,136.8z"/>
		<path class="st0" d="M15,128.8v-0.4c0.3,0,0.5,0,0.7,0.1c0.2,0.1,0.4,0.2,0.5,0.3c0.2,0.1,0.3,0.3,0.4,0.5c0.3,0.5,0.3,1,0.1,1.4
			c-0.2,0.4-0.5,0.8-0.9,1c-0.4,0.2-0.8,0.3-1.2,0.2c-0.5-0.1-0.9-0.4-1.2-0.9c-0.3-0.5-0.3-1-0.1-1.5c0.2-0.4,0.4-0.6,0.8-0.9
			l1.4,2.7c0.3-0.2,0.6-0.4,0.7-0.8c0.1-0.3,0.1-0.7-0.1-1c-0.1-0.2-0.2-0.3-0.3-0.4c-0.1-0.1-0.3-0.2-0.4-0.3
			C15.4,128.8,15.2,128.8,15,128.8z M14.2,129.2c-0.2,0.2-0.3,0.3-0.4,0.5c-0.1,0.2-0.1,0.3-0.1,0.5c0,0.2,0.1,0.4,0.2,0.6
			c0.2,0.3,0.4,0.5,0.7,0.6c0.2,0.1,0.5,0.1,0.8,0L14.2,129.2z"/>
		<path class="st0" d="M10.8,124.2l0.4,0.1c-0.1,0.3-0.1,0.6,0,0.8c0.1,0.1,0.1,0.2,0.3,0.3c0.1,0.1,0.2,0.1,0.4,0
			c0.1,0,0.2-0.1,0.2-0.2c0.1-0.1,0.1-0.3,0.1-0.6c0-0.4,0.1-0.6,0.2-0.8c0.1-0.2,0.2-0.3,0.4-0.4c0.3-0.1,0.5-0.1,0.8,0
			c0.3,0.1,0.4,0.3,0.6,0.6c0.1,0.2,0.1,0.4,0.1,0.6c0,0.2-0.1,0.4-0.1,0.5l-0.4-0.1c0.1-0.3,0.2-0.6,0.1-0.8
			c-0.1-0.2-0.2-0.3-0.3-0.3c-0.2-0.1-0.3-0.1-0.4,0c-0.1,0.1-0.2,0.1-0.3,0.2c-0.1,0.1-0.1,0.3-0.1,0.6c0,0.3-0.1,0.6-0.2,0.8
			c-0.1,0.2-0.2,0.3-0.4,0.4c-0.2,0.1-0.5,0.1-0.7,0c-0.2-0.1-0.4-0.3-0.5-0.5C10.6,124.9,10.6,124.6,10.8,124.2z"/>
		<path class="st0" d="M10.2,117.3l0.1-0.4c0.3,0,0.5,0.1,0.7,0.2c0.2,0.1,0.4,0.2,0.5,0.4c0.1,0.2,0.2,0.4,0.3,0.6
			c0.2,0.5,0.2,1-0.1,1.4c-0.2,0.4-0.6,0.7-1,0.8c-0.4,0.1-0.8,0.1-1.2,0c-0.5-0.2-0.9-0.5-1-1.1c-0.2-0.5-0.1-1,0.2-1.5
			c0.2-0.3,0.5-0.6,1-0.7l1,2.9c0.4-0.1,0.6-0.4,0.8-0.7s0.2-0.6,0.1-1c-0.1-0.2-0.1-0.3-0.2-0.4c-0.1-0.1-0.2-0.2-0.4-0.3
			C10.7,117.4,10.5,117.4,10.2,117.3z M9.4,117.6c-0.2,0.1-0.3,0.3-0.4,0.4c-0.1,0.2-0.2,0.3-0.2,0.5s0,0.4,0.1,0.6
			c0.1,0.3,0.3,0.5,0.6,0.7c0.2,0.1,0.5,0.2,0.8,0.1L9.4,117.6z"/>
		<path class="st0" d="M6.8,113.9l-0.1-0.4l0.6-0.2c-0.3-0.1-0.5-0.3-0.6-0.4c-0.2-0.2-0.3-0.4-0.3-0.6c-0.1-0.2-0.1-0.5,0-0.7
			c0.1-0.2,0.2-0.4,0.4-0.5c0.2-0.1,0.5-0.3,0.9-0.4l1.7-0.4l0.1,0.4L7.9,111c-0.4,0.1-0.6,0.2-0.7,0.2c-0.2,0.1-0.3,0.2-0.4,0.4
			c-0.1,0.2-0.1,0.4,0,0.6c0.1,0.3,0.2,0.5,0.4,0.6c0.2,0.2,0.5,0.2,0.7,0.2c0.2,0,0.5-0.1,0.9-0.2l1.2-0.3l0.1,0.4L6.8,113.9z"/>
		<path class="st0" d="M3.9,107l-0.1-0.4l1.2-0.2l-0.1-0.7l0.4-0.1l0.1,0.7l2.9-0.6l0.1,0.4l-2.9,0.6l0.1,0.6l-0.4,0.1l-0.1-0.6
			L3.9,107z"/>
		<path class="st0" d="M4,98.6l3.3-0.4l0,0.4l-0.6,0.1c0.2,0.2,0.4,0.3,0.6,0.6c0.1,0.2,0.2,0.5,0.2,0.7c0.1,0.5-0.1,0.9-0.4,1.3
			c-0.3,0.4-0.7,0.6-1.2,0.6c-0.5,0.1-0.9-0.1-1.3-0.4c-0.4-0.3-0.6-0.7-0.7-1.2c0-0.3,0-0.5,0.1-0.8c0.1-0.2,0.2-0.5,0.5-0.6L4,99
			L4,98.6z M4.5,100.3c0,0.2,0.1,0.5,0.3,0.6c0.1,0.2,0.3,0.3,0.6,0.4c0.2,0.1,0.5,0.1,0.7,0.1c0.2,0,0.5-0.1,0.7-0.3
			c0.2-0.1,0.4-0.3,0.4-0.5c0.1-0.2,0.1-0.4,0.1-0.7c0-0.2-0.1-0.5-0.3-0.7c-0.1-0.2-0.3-0.3-0.5-0.4c-0.2-0.1-0.5-0.1-0.7-0.1
			c-0.4,0-0.7,0.2-0.9,0.5C4.6,99.6,4.5,99.9,4.5,100.3z"/>
		<path class="st0" d="M2.4,94.2l0-0.4l1.3,0l0-0.7L4,93l0,0.7l3-0.1l0,0.4l-3,0.1l0,0.6l-0.4,0l0-0.6L2.4,94.2z"/>
		<path class="st0" d="M2.2,89.2c0-0.1,0-0.2,0.1-0.3c0.1-0.1,0.2-0.1,0.3-0.1c0.1,0,0.2,0,0.2,0.1C2.9,89,3,89.1,3,89.2
			c0,0.1,0,0.2-0.1,0.2c-0.1,0.1-0.2,0.1-0.3,0.1c-0.1,0-0.2,0-0.3-0.1C2.3,89.4,2.2,89.3,2.2,89.2z M3.6,89.4l0-0.4L7,89l0,0.4
			L3.6,89.4z"/>
		<path class="st0" d="M6.3,82.4L6.5,82c0.2,0.1,0.4,0.3,0.5,0.5c0.1,0.2,0.2,0.4,0.3,0.6c0.1,0.2,0.1,0.4,0.1,0.7
			c0,0.5-0.3,1-0.6,1.2c-0.4,0.3-0.8,0.4-1.3,0.4c-0.4,0-0.8-0.2-1.1-0.5C4,84.5,3.8,84,3.8,83.5c0-0.6,0.3-1,0.8-1.3
			c0.3-0.2,0.7-0.3,1.2-0.3l-0.2,3c0.4,0,0.7-0.1,1-0.3c0.3-0.2,0.4-0.5,0.4-0.9c0-0.2,0-0.3,0-0.5c0-0.2-0.1-0.3-0.2-0.4
			C6.6,82.7,6.5,82.5,6.3,82.4z M5.4,82.3c-0.2,0-0.4,0.1-0.6,0.2c-0.1,0.1-0.3,0.2-0.4,0.4c-0.1,0.2-0.2,0.4-0.2,0.6
			c0,0.3,0.1,0.6,0.2,0.9c0.1,0.2,0.4,0.3,0.7,0.5L5.4,82.3z"/>
		<path class="st0" d="M3.4,77.3l0.1-0.4l1.2,0.2l0.1-0.7l0.4,0.1L5,77.1l3,0.5L7.9,78l-3-0.5l-0.1,0.6l-0.4-0.1l0.1-0.6L3.4,77.3z"
			/>
		<path class="st0" d="M6.2,69.4l3.3,0.8l-0.1,0.4l-0.6-0.1C9,70.7,9.1,71,9.2,71.2c0.1,0.2,0.1,0.5,0,0.8c-0.1,0.5-0.4,0.8-0.8,1.1
			c-0.4,0.3-0.9,0.3-1.3,0.2c-0.5-0.1-0.8-0.4-1.1-0.8c-0.3-0.4-0.3-0.8-0.2-1.3c0.1-0.3,0.2-0.5,0.3-0.7c0.2-0.2,0.4-0.3,0.7-0.5
			l-0.6-0.1L6.2,69.4z M6.2,71.2c-0.1,0.2,0,0.5,0,0.7c0.1,0.2,0.2,0.4,0.4,0.6c0.2,0.2,0.4,0.3,0.6,0.3c0.2,0.1,0.5,0,0.7,0
			c0.2-0.1,0.4-0.2,0.6-0.4c0.2-0.2,0.3-0.4,0.3-0.6c0.1-0.2,0-0.5,0-0.7c-0.1-0.2-0.2-0.4-0.4-0.6c-0.2-0.2-0.4-0.3-0.6-0.3
			c-0.4-0.1-0.7,0-1,0.2C6.4,70.6,6.2,70.8,6.2,71.2z"/>
		<path class="st0" d="M6.1,65.2l0.1-0.4l4.5,1.4l-0.1,0.4L6.1,65.2z"/>
		<path class="st0" d="M11.8,59.6l0.3-0.3c0.2,0.2,0.3,0.4,0.4,0.6c0.1,0.2,0.1,0.4,0.1,0.6c0,0.2,0,0.4-0.1,0.7
			c-0.2,0.5-0.5,0.9-1,1c-0.4,0.2-0.9,0.2-1.3,0c-0.4-0.2-0.7-0.4-0.9-0.8c-0.3-0.5-0.3-1-0.1-1.5c0.2-0.5,0.6-0.9,1.1-1.1
			c0.4-0.1,0.8-0.1,1.2,0.1l-1.1,2.8c0.4,0.1,0.7,0.1,1,0c0.3-0.1,0.5-0.4,0.7-0.7c0.1-0.2,0.1-0.3,0.1-0.5c0-0.2,0-0.3-0.1-0.5
			C12,59.9,11.9,59.8,11.8,59.6z M10.9,59.2c-0.2,0-0.4,0-0.6,0c-0.2,0.1-0.3,0.2-0.5,0.3c-0.1,0.1-0.3,0.3-0.3,0.5
			c-0.1,0.3-0.1,0.6,0,0.9c0.1,0.2,0.3,0.4,0.5,0.6L10.9,59.2z"/>
		<path class="st0" d="M11.4,54.7l0.2-0.4l0.5,0.3c-0.1-0.3-0.2-0.5-0.2-0.7c0-0.2,0-0.5,0.1-0.7c0.1-0.2,0.3-0.4,0.5-0.5
			c0.2-0.1,0.4-0.2,0.7-0.2c0.2,0,0.6,0.1,1,0.3l1.6,0.7l-0.2,0.4l-1.5-0.7c-0.4-0.2-0.6-0.3-0.7-0.3c-0.2,0-0.4,0-0.6,0
			c-0.2,0.1-0.3,0.2-0.4,0.4c-0.1,0.2-0.1,0.5-0.1,0.7c0.1,0.3,0.2,0.5,0.4,0.6c0.1,0.1,0.4,0.3,0.8,0.4l1.1,0.5l-0.2,0.4L11.4,54.7
			z"/>
		<path class="st0" d="M13.6,47.6l0.2-0.4l1.1,0.6l0.3-0.6l0.3,0.2L15.2,48l2.6,1.5l-0.2,0.4L15,48.4l-0.3,0.5l-0.3-0.2l0.3-0.5
			L13.6,47.6z"/>
		<path class="st0" d="M18.8,39.1c0.1-0.1,0.1-0.1,0.2-0.1c0.1,0,0.2,0,0.3,0.1c0.1,0.1,0.1,0.1,0.1,0.2c0,0.1,0,0.2-0.1,0.3
			c-0.1,0.1-0.1,0.1-0.2,0.1c-0.1,0-0.2,0-0.3-0.1c-0.1-0.1-0.1-0.1-0.1-0.2S18.7,39.2,18.8,39.1z M19.8,40.1l0.3-0.4l2.7,2
			l-0.3,0.4L19.8,40.1z"/>
		<path class="st0" d="M22.4,36.6l0.3-0.3l0.5,0.4c-0.1-0.3-0.1-0.5,0-0.8c0-0.2,0.1-0.4,0.3-0.6c0.2-0.2,0.4-0.3,0.6-0.4
			c0.2-0.1,0.4-0.1,0.7,0c0.2,0.1,0.5,0.2,0.9,0.5l1.3,1.1l-0.3,0.3l-1.2-1c-0.3-0.2-0.5-0.4-0.6-0.5c-0.2-0.1-0.4-0.1-0.6-0.1
			s-0.3,0.1-0.5,0.3c-0.2,0.2-0.2,0.4-0.2,0.7c0,0.3,0.1,0.5,0.2,0.7c0.1,0.1,0.3,0.3,0.7,0.6l1,0.8L25,38.7L22.4,36.6z"/>
		<path class="st0" d="M31.9,24.6l3.2,3.4l-0.3,0.3l-0.4-0.4c0,0.3,0,0.5-0.1,0.8c-0.1,0.2-0.2,0.4-0.4,0.6
			c-0.4,0.3-0.8,0.5-1.3,0.4c-0.5,0-0.9-0.2-1.2-0.6c-0.3-0.4-0.5-0.8-0.5-1.3c0-0.5,0.2-0.9,0.6-1.2c0.2-0.2,0.4-0.3,0.7-0.4
			c0.2-0.1,0.5-0.1,0.8,0l-1.3-1.4L31.9,24.6z M31.8,27c-0.2,0.2-0.3,0.4-0.4,0.6c-0.1,0.2-0.1,0.5,0,0.7c0.1,0.2,0.2,0.4,0.3,0.6
			c0.2,0.2,0.4,0.3,0.6,0.4c0.2,0.1,0.5,0.1,0.7,0c0.2-0.1,0.4-0.2,0.6-0.3c0.2-0.2,0.3-0.4,0.4-0.6c0.1-0.2,0.1-0.5,0-0.7
			c-0.1-0.2-0.2-0.4-0.3-0.6c-0.3-0.3-0.6-0.4-0.9-0.5C32.4,26.6,32.1,26.8,31.8,27z"/>
		<path class="st0" d="M39.6,23l0.4-0.1c0,0.3,0.1,0.5,0,0.7c0,0.2-0.1,0.4-0.2,0.6s-0.3,0.3-0.5,0.5c-0.4,0.3-0.9,0.5-1.4,0.4
			c-0.5-0.1-0.8-0.3-1.1-0.7c-0.3-0.3-0.4-0.7-0.4-1.1c0-0.5,0.2-1,0.7-1.3c0.5-0.4,1-0.5,1.5-0.3c0.4,0.1,0.7,0.3,1,0.7l-2.4,1.9
			c0.2,0.3,0.5,0.5,0.9,0.5s0.7,0,0.9-0.3c0.1-0.1,0.2-0.2,0.3-0.4c0.1-0.1,0.2-0.3,0.2-0.4C39.6,23.5,39.6,23.3,39.6,23z M39,22.3
			c-0.2-0.1-0.4-0.2-0.5-0.3c-0.2,0-0.4,0-0.6,0c-0.2,0-0.4,0.1-0.5,0.3c-0.3,0.2-0.4,0.5-0.5,0.8c0,0.2,0,0.5,0.1,0.8L39,22.3z"/>
		<path class="st0" d="M45.8,16.1l0.4-0.2l0.3,0.5c0-0.3,0.1-0.5,0.2-0.6c0.1-0.2,0.3-0.4,0.5-0.5c0.1-0.1,0.3-0.1,0.5-0.1
			c0.2,0,0.3,0,0.4,0c0.1,0,0.3,0.1,0.4,0.3c0-0.3,0.1-0.6,0.2-0.8c0.1-0.2,0.3-0.4,0.5-0.5c0.2-0.1,0.4-0.2,0.6-0.1
			c0.2,0,0.4,0.1,0.6,0.2c0.2,0.1,0.4,0.4,0.6,0.8l0.9,1.6l-0.4,0.2l-0.9-1.6c-0.2-0.3-0.3-0.5-0.4-0.6c-0.1-0.1-0.2-0.1-0.4-0.2
			c-0.1,0-0.3,0-0.5,0.1c-0.2,0.1-0.3,0.3-0.4,0.4c-0.1,0.2-0.1,0.4-0.1,0.6c0,0.2,0.2,0.5,0.4,1l0.6,1.2l-0.4,0.2l-0.8-1.5
			c-0.2-0.4-0.4-0.6-0.5-0.7c-0.1-0.1-0.2-0.2-0.4-0.2c-0.2,0-0.3,0-0.5,0.1c-0.2,0.1-0.3,0.2-0.4,0.4c-0.1,0.2-0.1,0.4-0.1,0.6
			c0,0.2,0.1,0.5,0.3,0.9l0.7,1.2L47.5,19L45.8,16.1z"/>
		<path class="st0" d="M57.4,12.7l0.4,0c0,0.3-0.1,0.5-0.1,0.7c-0.1,0.2-0.2,0.4-0.4,0.5c-0.1,0.1-0.3,0.3-0.6,0.4
			c-0.5,0.2-1,0.2-1.4,0c-0.4-0.2-0.7-0.5-0.9-0.9c-0.2-0.4-0.2-0.8-0.1-1.2c0.1-0.5,0.5-0.9,1-1.1c0.5-0.2,1-0.2,1.5,0
			c0.3,0.2,0.6,0.5,0.8,0.9l-2.8,1.2c0.2,0.4,0.4,0.6,0.7,0.7c0.3,0.1,0.6,0.1,1,0c0.2-0.1,0.3-0.2,0.4-0.3c0.1-0.1,0.2-0.2,0.3-0.4
			C57.3,13.2,57.3,13,57.4,12.7z M57,11.9c-0.1-0.2-0.3-0.3-0.5-0.4c-0.2-0.1-0.3-0.1-0.5-0.1c-0.2,0-0.4,0-0.6,0.1
			c-0.3,0.1-0.5,0.3-0.7,0.6c-0.1,0.2-0.1,0.5-0.1,0.8L57,11.9z"/>
		<path class="st0" d="M63.3,6.7l1.5,4.4l-0.4,0.1l-0.2-0.5c-0.1,0.3-0.2,0.5-0.4,0.7c-0.2,0.2-0.4,0.3-0.6,0.4
			c-0.5,0.2-0.9,0.1-1.3-0.1c-0.4-0.2-0.7-0.6-0.9-1c-0.2-0.5-0.1-0.9,0.1-1.3c0.2-0.4,0.5-0.7,1-0.9c0.3-0.1,0.5-0.1,0.8-0.1
			c0.3,0,0.5,0.1,0.7,0.3l-0.6-1.8L63.3,6.7z M62.2,8.8C62,8.9,61.8,9,61.6,9.2c-0.2,0.2-0.3,0.4-0.3,0.6c0,0.2,0,0.5,0.1,0.7
			c0.1,0.2,0.2,0.4,0.4,0.6c0.2,0.2,0.4,0.3,0.6,0.3c0.2,0,0.5,0,0.7,0c0.2-0.1,0.4-0.2,0.6-0.4c0.2-0.2,0.3-0.4,0.3-0.6
			c0-0.2,0-0.5-0.1-0.7c-0.1-0.4-0.4-0.6-0.7-0.8C62.9,8.7,62.6,8.7,62.2,8.8z"/>
		<path class="st0" d="M67.4,5.4c0.1,0,0.2,0,0.3,0c0.1,0,0.1,0.1,0.2,0.2c0,0.1,0,0.2,0,0.3c0,0.1-0.1,0.1-0.2,0.2
			c-0.1,0-0.2,0-0.3,0c-0.1,0-0.1-0.1-0.2-0.2c0-0.1,0-0.2,0-0.3S67.3,5.5,67.4,5.4z M67.5,6.8L68,6.7l0.9,3.3l-0.4,0.1L67.5,6.8z"
			/>
		<path class="st0" d="M75.1,5.1l0.7,3.3l-0.4,0.1l-0.1-0.6c-0.1,0.3-0.3,0.5-0.5,0.6c-0.2,0.2-0.4,0.3-0.7,0.3
			c-0.5,0.1-0.9,0-1.3-0.3c-0.4-0.3-0.6-0.7-0.7-1.1c-0.1-0.5,0-0.9,0.3-1.3c0.3-0.4,0.6-0.7,1.1-0.7c0.3-0.1,0.5,0,0.8,0
			c0.2,0.1,0.5,0.2,0.7,0.4l-0.1-0.6L75.1,5.1z M73.5,5.8c-0.2,0-0.4,0.2-0.6,0.3c-0.2,0.2-0.3,0.4-0.4,0.6c-0.1,0.2-0.1,0.5,0,0.7
			c0,0.2,0.2,0.4,0.3,0.6c0.2,0.2,0.4,0.3,0.6,0.4c0.2,0.1,0.5,0.1,0.7,0c0.2,0,0.4-0.1,0.6-0.3C74.8,8,75,7.8,75,7.6
			c0.1-0.2,0.1-0.5,0-0.7C75,6.5,74.8,6.2,74.5,6C74.2,5.8,73.9,5.7,73.5,5.8z"/>
	</g>
	<g>
		<path class="st0" d="M90.5,181C40.6,181,0,140.4,0,90.5S40.6,0,90.5,0C140.4,0,181,40.6,181,90.5S140.4,181,90.5,181z M90.5,0.7
			C41,0.7,0.7,41,0.7,90.5s40.3,89.8,89.8,89.8c49.5,0,89.8-40.3,89.8-89.8S140,0.7,90.5,0.7z"/>
	</g>
	<g>
		
			<ellipse transform="matrix(0.2162 -0.9764 0.9764 0.2162 -17.4222 159.2988)" class="st1" cx="90.5" cy="90.5" rx="50.4" ry="50.4"/>
		<path class="st2" d="M90.5,9.1C45.6,9.1,9.1,45.6,9.1,90.5c0,44.9,36.4,81.4,81.4,81.4c44.9,0,81.4-36.4,81.4-81.4
			C171.9,45.6,135.4,9.1,90.5,9.1z M90.5,140.9c-27.8,0-50.4-22.6-50.4-50.4c0-27.8,22.6-50.4,50.4-50.4c27.8,0,50.4,22.6,50.4,50.4
			C140.9,118.3,118.3,140.9,90.5,140.9z"/>
	</g>
	<circle class="st3" cx="90.5" cy="90.5" r="46.6"/>
	<g>
		<path class="st4" d="M56.6,75.2c0.7-3.5,1.8-6.9,3.3-10c1-2.1,2.1-4,3.3-5.8c-2.8,2.5-5.2,5.3-7.3,8.5c-1.3,2-2.4,4-3.3,6.2
			C53.8,74.6,55.2,74.9,56.6,75.2z"/>
		<path class="st4" d="M62.3,66.4c-1.3,2.8-2.4,6-3.1,9.3c3.7,0.5,7.8,0.6,12.1,0.4c-0.2-4.8-0.1-9.2,0.4-13c0.5-4.3,1.6-7.8,3-10.5
			C69.4,55.5,65.2,60.3,62.3,66.4z"/>
		<path class="st4" d="M80.8,50.3c-3.2,1-5.4,5.9-6.3,13.1c-0.5,3.7-0.6,7.9-0.4,12.5c4.2-0.3,8.6-1,12.9-1.9
			c3.8-0.8,7.6-1.8,11.1-3c-1.7-4.4-3.5-8.2-5.5-11.4c-3.9-6.3-7.9-9.9-11.3-9.4C81.1,50.2,81,50.3,80.8,50.3z"/>
		<path class="st4" d="M95,58.1c2,3.3,4,7.4,5.7,11.9c4.1-1.5,7.8-3.2,11.1-5.1c-2.1-2.9-4.4-5.5-6.9-7.6C99.8,52.9,94,50.2,88,49.8
			C90.4,51.6,92.7,54.5,95,58.1z"/>
		<path class="st4" d="M106.7,55.3c2.7,2.3,5.2,5.1,7.4,8.2c1.6-1.1,3.1-2.2,4.4-3.4c-1.7-1.6-3.6-3-5.6-4.3
			c-4.3-2.8-9.1-4.8-14.2-5.8C101.5,51.3,104.2,53.1,106.7,55.3z"/>
		<path class="st4" d="M128.4,106.5c-1.6-0.6-3.4-1-5.4-1.3c-0.7,3.8-1.9,7.3-3.4,10.6c-1.4,3-3.1,5.7-5.1,8.1
			c4.2-3,7.8-6.8,10.6-11.1C126.3,110.8,127.5,108.7,128.4,106.5z"/>
		<path class="st4" d="M117.1,114.6c1.4-3,2.5-6.3,3.2-9.8c-3.7-0.4-7.9-0.4-12.2-0.1c0.3,4.9,0.1,9.3-0.4,13.2
			c-0.5,4.3-1.6,7.8-3,10.5C110,125.5,114.3,120.7,117.1,114.6z"/>
		<path class="st4" d="M105,117.6c0.5-3.7,0.6-8,0.4-12.6c-3.7,0.4-7.6,1-11.4,1.8c-4.3,0.9-8.6,2.1-12.6,3.5
			c1.7,4.3,3.5,8.1,5.4,11.2c3.8,6.2,7.8,9.8,11.1,9.4c0.2,0,0.4-0.1,0.5-0.1C101.8,129.9,104.1,124.9,105,117.6z"/>
		<path class="st4" d="M84.5,122.9c-2-3.3-3.9-7.2-5.7-11.7c-4,1.6-7.7,3.3-10.8,5.3c2,2.7,4.2,5.2,6.6,7.2
			c5.1,4.4,10.9,7.1,16.9,7.6C89.1,129.4,86.7,126.5,84.5,122.9z"/>
		<path class="st4" d="M72.8,125.7c-2.6-2.2-4.9-4.8-7.1-7.8c-1.2,0.8-2.2,1.7-3.2,2.6c1.7,1.6,3.6,3,5.6,4.3
			c3.1,2,6.5,3.6,10.1,4.8C76.3,128.5,74.5,127.2,72.8,125.7z"/>
		<path class="st4" d="M59.2,95.6l14.3-3c-1-4.8-1.6-9.4-1.9-13.8c-4.5,0.2-8.8,0.1-12.7-0.4C58,83.8,58.1,89.6,59.2,95.6z"/>
		<path class="st4" d="M74.2,78.6c0.3,4.2,1,8.7,1.9,13.4l26.6-5.7c-1-4.5-2.3-8.8-3.7-12.8c-3.7,1.2-7.6,2.3-11.5,3.1
			C83.1,77.6,78.6,78.3,74.2,78.6z"/>
		<path class="st4" d="M101.7,72.6c1.4,4.1,2.7,8.5,3.8,13.1l14.3-3c-1.4-5.7-3.6-11-6.4-15.5C109.9,69.2,105.9,71.1,101.7,72.6z"/>
		<path class="st4" d="M115.6,65.8c3,4.8,5.3,10.3,6.8,16.3l8.1-1.7c-1.8-7.1-5.3-13.4-10.1-18.4C119,63.3,117.4,64.6,115.6,65.8z"
			/>
		<path class="st4" d="M56.5,96.2c-1.2-6.3-1.3-12.5-0.4-18.3c-1.6-0.3-3.1-0.7-4.5-1.2c-2.3,6.5-3,13.7-1.7,20.9L56.5,96.2z"/>
		<path class="st4" d="M57.1,98.9l-6.6,1.4c1.8,7.1,5.3,13.4,10.1,18.4c1.1-1,2.3-2,3.6-2.9C61,110.8,58.6,105.1,57.1,98.9z"/>
		<path class="st4" d="M59.8,98.3c1.4,5.9,3.7,11.3,6.7,15.9c3.3-2.1,7.2-4,11.4-5.6c-1.5-4.1-2.8-8.6-3.8-13.4L59.8,98.3z"/>
		<path class="st4" d="M76.7,94.7c1,4.6,2.3,9,3.7,13c4.1-1.5,8.5-2.7,13-3.6c3.9-0.8,7.9-1.5,11.8-1.8c-0.3-4.2-1-8.6-1.9-13.2
			L76.7,94.7z"/>
		<path class="st4" d="M106,88.4c0.9,4.7,1.6,9.2,1.9,13.5c4.5-0.3,8.9-0.3,12.8,0.2c0.7-5.3,0.6-10.9-0.5-16.7L106,88.4z"/>
		<path class="st4" d="M123,84.8c1.2,6.1,1.3,12.1,0.5,17.7c2.1,0.4,4.1,0.9,5.9,1.5c2.3-6.5,3-13.7,1.7-20.9L123,84.8z"/>
	</g>
	<g>
		<path class="st5" d="M23.6,121.4l-1.1-2.9c-0.6-1.6-0.9-2.7-0.9-3.5s0.3-1.5,0.8-2.2c0.5-0.7,1.2-1.2,2.1-1.5
			c1-0.4,1.9-0.5,2.8-0.2c0.9,0.3,1.6,0.8,2.2,1.6c0.4,0.5,0.8,1.4,1.3,2.8l6.1-2.4l1.1,2.7L23.6,121.4z M28.1,116.5l-0.3-0.9
			c-0.3-0.7-0.5-1.1-0.7-1.4c-0.2-0.2-0.4-0.4-0.7-0.4c-0.3-0.1-0.6,0-0.9,0.1c-0.6,0.2-0.9,0.6-1,1.1c-0.1,0.4,0.1,1,0.4,1.8
			l0.3,0.8L28.1,116.5z"/>
		<path class="st5" d="M18,103.9l-0.3-2.9l5.8-0.6l-0.5-5.1l-5.8,0.6L16.8,93l15.3-1.6l0.3,2.9L25.7,95l0.5,5.1l6.7-0.7l0.3,2.9
			L18,103.9z"/>
		<path class="st5" d="M17.3,83.9l0.3-2.9l15.3,1.7l-0.3,2.9L17.3,83.9z"/>
		<path class="st5" d="M19.1,72.5l0.8-2.8L32,73.3l1.2-4.1l2.7,0.8l-2,6.9L19.1,72.5z"/>
		<path class="st5" d="M24.1,58.9l1.3-2.6l13.7,6.9l-1.3,2.6L24.1,58.9z"/>
		<path class="st5" d="M29.9,48.7l1.9-2.4c1-1.3,1.9-2.2,2.6-2.6c0.7-0.4,1.5-0.5,2.3-0.5c0.8,0.1,1.6,0.4,2.4,1
			c0.8,0.7,1.4,1.4,1.6,2.3c0.2,0.9,0.1,1.8-0.2,2.7c-0.2,0.5-0.8,1.4-1.7,2.6l5.1,4L42,58.1L29.9,48.7z M36.4,50.1l0.6-0.7
			c0.4-0.6,0.7-1,0.8-1.3c0.1-0.3,0.1-0.6,0-0.8c-0.1-0.3-0.3-0.5-0.5-0.7c-0.5-0.4-1-0.5-1.4-0.3c-0.4,0.1-0.8,0.6-1.4,1.3
			l-0.5,0.6L36.4,50.1z"/>
		<path class="st5" d="M58.2,41.9l-7.5-13.4l2.1-1.2c1.2-0.7,2.2-1.1,2.8-1.3c0.9-0.2,1.8-0.2,2.6,0.1c0.8,0.3,1.4,0.9,1.9,1.6
			c0.3,0.5,0.4,1,0.5,1.6c0,0.5-0.1,1.1-0.4,1.8c1-0.1,1.9,0.1,2.6,0.4c0.7,0.4,1.3,0.9,1.7,1.7c0.4,0.8,0.6,1.5,0.6,2.4
			c0,0.8-0.3,1.6-0.7,2.2c-0.4,0.7-1.2,1.3-2.3,1.9L58.2,41.9z M54.6,29.5l1.6,2.8l0.6-0.3c0.6-0.3,1-0.7,1.2-1.2
			c0.2-0.4,0.1-0.9-0.1-1.3c-0.2-0.4-0.6-0.7-1-0.8c-0.4-0.1-0.9,0-1.5,0.4L54.6,29.5z M57.4,34.6l1.9,3.4l0.6-0.4
			c1.1-0.6,1.7-1.1,1.9-1.6c0.2-0.5,0.2-1-0.1-1.5c-0.3-0.6-0.8-0.9-1.4-1c-0.6-0.1-1.4,0.1-2.4,0.7L57.4,34.6z"/>
		<path class="st5" d="M67.2,20.7l2.8-0.8L73.5,32l4.1-1.2l0.8,2.7l-6.9,2L67.2,20.7z"/>
		<path class="st5" d="M89.9,16.6c2.2,0,4,0.8,5.6,2.3c1.6,1.6,2.4,3.5,2.4,5.7c0,2.2-0.7,4.1-2.3,5.7c-1.5,1.6-3.4,2.4-5.6,2.4
			c-2.3,0-4.2-0.8-5.8-2.3c-1.5-1.6-2.3-3.5-2.3-5.7c0-1.5,0.3-2.8,1-4.1c0.7-1.2,1.7-2.2,2.9-3C87.1,17,88.5,16.6,89.9,16.6z
			 M89.9,19.5c-1.4,0-2.6,0.5-3.6,1.5c-1,1-1.4,2.3-1.4,3.8c0,1.7,0.6,3,1.9,4c1,0.8,2,1.1,3.3,1.1c1.4,0,2.6-0.5,3.5-1.5
			c1-1,1.4-2.2,1.4-3.7c0-1.5-0.5-2.7-1.5-3.7C92.5,19.9,91.3,19.4,89.9,19.5z"/>
		<path class="st5" d="M107.1,18.8l8.1,2.3l-0.8,2.7l-5.3-1.5l-0.8,2.7l5.3,1.5l-0.8,2.7l-5.3-1.5l-1.1,3.9l5.3,1.5l-0.8,2.8
			l-8.1-2.3L107.1,18.8z"/>
		<path class="st5" d="M125.3,25.4l2.4,1.6l-2.9,10.9l8.9-7l2.4,1.6l-6.2,14.3l-2.4-1.5l3.9-9l-8,6.3l-2.2-1.4l2.6-9.9l-6.7,7.2
			l-2.4-1.6L125.3,25.4z"/>
		<path class="st5" d="M144.5,40.4l5.4,6.4l-2.2,1.8l-3.5-4.2l-2.1,1.8l3.5,4.2l-2.2,1.8l-3.5-4.2l-3.1,2.6l3.5,4.2l-2.2,1.8
			l-5.4-6.4L144.5,40.4z"/>
		<path class="st5" d="M154.9,54.5l1.2,2.6l-6.5,10.2l9.2-4.2l1.2,2.7l-14,6.4l-1.2-2.6l6.5-10.1l-9.2,4.2l-1.2-2.7L154.9,54.5z"/>
		<path class="st5" d="M162.8,75.7l0.4,3.4c0.3,2.2,0.2,3.9-0.2,5c-0.4,1.1-1.2,2.1-2.3,3c-1.1,0.9-2.5,1.4-4.2,1.6
			c-1.2,0.1-2.3,0.1-3.3-0.2c-1-0.3-1.9-0.7-2.7-1.3c-0.7-0.6-1.3-1.3-1.6-2.1c-0.3-0.8-0.6-2.1-0.9-4.1l-0.4-3.5L162.8,75.7z
			 M160.4,78.9l-9.6,1.2l0.2,1.3c0.2,1.3,0.4,2.3,0.8,2.8s1,1,1.7,1.3c0.8,0.3,1.7,0.4,2.7,0.2c1.6-0.2,2.8-0.8,3.6-1.8
			c0.7-0.9,0.9-2.3,0.7-4.1L160.4,78.9z"/>
		<path class="st5" d="M163.2,101.9l-0.5,2.9l-16.1,3.1l0.5-3l3.3-0.6l1.1-6.2l-2.9-1.8l0.5-3L163.2,101.9z M158.9,102.7l-4.8-2.9
			l-0.7,4L158.9,102.7z"/>
		<path class="st5" d="M158.6,118.6l-1.2,2.7l-11.4-5.3l-1.8,3.9l-2.5-1.2l3-6.5L158.6,118.6z"/>
	</g>
	<g>
		<g>
			<polygon class="st5" points="137.3,136.8 135.2,138.9 138.2,138.6 139.6,141.3 140.2,138.3 143.2,137.8 140.5,136.3 141,133.3 
				138.8,135.4 136.1,134 			"/>
		</g>
	</g>
	<g>
		<g>
			<polygon class="st5" points="43.6,136.8 45.7,138.9 42.7,138.6 41.4,141.3 40.8,138.3 37.8,137.8 40.4,136.3 39.9,133.3 
				42.2,135.4 44.9,134 			"/>
		</g>
	</g>
	<g>
		<g>
			<polygon class="st0" points="91.1,4.1 90.5,2.2 89.9,4.1 87.9,4.1 89.5,5.3 88.9,7.2 90.5,6.1 92.1,7.2 91.5,5.3 93.1,4.1 			"/>
		</g>
	</g>
	<g>
		<path class="st5" d="M61.4,143.4l2,1c1.1,0.5,1.8,1,2.2,1.4c0.4,0.4,0.6,0.9,0.7,1.5c0.1,0.6-0.1,1.2-0.4,1.8
			c-0.3,0.7-0.8,1.2-1.4,1.5c-0.6,0.3-1.2,0.4-2,0.2c-0.4-0.1-1.1-0.3-2.1-0.8l-2,4.2l-1.9-0.9L61.4,143.4z M61.4,148.2l0.6,0.3
			c0.5,0.2,0.8,0.4,1,0.4c0.2,0,0.4,0,0.6-0.1c0.2-0.1,0.3-0.3,0.4-0.5c0.2-0.4,0.2-0.7,0-1.1c-0.2-0.2-0.5-0.5-1.1-0.8l-0.5-0.3
			L61.4,148.2z"/>
		<path class="st5" d="M75.4,149l2.2,0.5c1.2,0.2,2,0.5,2.5,0.9c0.5,0.3,0.8,0.8,1,1.3c0.2,0.6,0.2,1.2,0.1,1.9
			c-0.1,0.7-0.4,1.3-0.9,1.7c-0.4,0.4-1,0.7-1.8,0.8l1.6,5.4l-2.3-0.5l-1.5-5.1l-0.2,0l-1,4.6l-2.1-0.4L75.4,149z M76.6,153.6
			l0.6,0.1c0.7,0.1,1.1,0.1,1.4,0c0.3-0.1,0.5-0.4,0.6-0.8c0-0.2,0-0.5-0.1-0.7s-0.2-0.4-0.4-0.5c-0.2-0.1-0.6-0.2-1.1-0.4l-0.6-0.1
			L76.6,153.6z"/>
		<path class="st5" d="M90.7,150.9l2.1,0l0.2,11.1l-2.1,0L90.7,150.9z"/>
		<path class="st5" d="M104.7,149.2l2.1-0.5l1.7,7.2c0.3,1.1,0.4,2,0.3,2.5c-0.1,0.5-0.3,0.9-0.6,1.3c-0.4,0.4-0.8,0.6-1.4,0.8
			c-1.2,0.3-2.3,0-3.4-0.8l1.2-1.7c0.4,0.3,0.8,0.5,1,0.6c0.3,0.1,0.5,0.1,0.7,0c0.2-0.1,0.4-0.2,0.4-0.4c0.1-0.2,0-0.6-0.1-1.3
			L104.7,149.2z"/>
		<path class="st5" d="M121.3,144.3l-0.8,1.9c-0.8-0.4-1.5-0.5-2-0.3c-0.2,0.1-0.4,0.3-0.5,0.5c-0.1,0.2-0.1,0.4,0,0.6
			c0.1,0.2,0.2,0.3,0.4,0.4c0.3,0.1,0.9,0.3,2,0.6c1,0.2,1.7,0.4,1.9,0.5c0.6,0.2,1,0.4,1.4,0.7c0.3,0.3,0.6,0.6,0.8,1
			c0.4,0.8,0.5,1.6,0.2,2.4c-0.3,0.8-0.9,1.5-1.8,1.9c-0.7,0.4-1.4,0.5-2.1,0.4c-0.7-0.1-1.4-0.4-2.2-0.9l1.1-1.8
			c0.9,0.6,1.7,0.8,2.3,0.5c0.3-0.2,0.5-0.4,0.7-0.7c0.1-0.3,0.1-0.6,0-0.8c-0.1-0.2-0.3-0.4-0.6-0.5c-0.3-0.1-0.8-0.3-1.6-0.5
			c-1.5-0.3-2.6-0.7-3.1-1c-0.6-0.3-1-0.7-1.2-1.2c-0.3-0.7-0.4-1.4-0.1-2.2c0.3-0.8,0.8-1.3,1.6-1.7c0.5-0.3,1-0.4,1.6-0.4
			C119.8,143.7,120.5,143.9,121.3,144.3z"/>
	</g>
	<g>
		<g>
			<path class="st6" d="M96.2,93.3c-0.8,0-1.4-0.6-1.4-1.4c0-0.8,0.6-1.4,1.4-1.4h6.9v-2.7h-6.9c-0.8,0-1.4-0.6-1.4-1.4
				c0-0.8,0.6-1.4,1.4-1.4h6.9v-2.7h-6.9c-0.8,0-1.4-0.6-1.4-1.4c0-0.8,0.6-1.4,1.4-1.4h6.9v-2.4h-6.9c-0.8,0-1.4-0.6-1.4-1.4
				c0-0.8,0.6-1.4,1.4-1.4h6.9v-2.7h-6.9c-0.8,0-1.4-0.6-1.4-1.4c0-0.8,0.6-1.4,1.4-1.4h6.8c-0.8-5.6-5.5-9.9-11.3-9.9h-2.3
				c-5.8,0-10.5,4.3-11.3,9.9h6.2c0.8,0,1.4,0.6,1.4,1.4c0,0.8-0.6,1.4-1.4,1.4h-6.3V74h6.3c0.8,0,1.4,0.6,1.4,1.4
				c0,0.8-0.6,1.4-1.4,1.4h-6.3v2.7h6.3c0.8,0,1.4,0.6,1.4,1.4c0,0.8-0.6,1.4-1.4,1.4h-6.3v2.7h6.3c0.8,0,1.4,0.6,1.4,1.4
				c0,0.8-0.6,1.4-1.4,1.4h-6.3v2.7h6.3c0.8,0,1.4,0.6,1.4,1.4c0,0.8-0.6,1.4-1.4,1.4h-6.3v6.1c0,6.3,5.1,11.4,11.4,11.4h2.3
				c6.3,0,11.4-5.1,11.4-11.4v-6.4H96.2z"/>
			<path class="st6" d="M105.5,94.1c-0.1-0.2-0.3-0.2-0.6-0.3c-0.2,0-0.4,0.1-0.6,0.2c-0.2,0.2-0.3,0.4-0.3,0.6l-0.1,5.9
				c0,6.2-5.1,11.3-11.3,11.3h-4.1c-6.2,0-11.3-5.1-11.3-11.3l-0.3-5.7c0-0.2-0.1-0.4-0.3-0.6C76.5,94,76.3,94,76.1,94
				c-0.4,0-0.8,0.4-0.8,0.8l0.3,5.7c0,7.1,5.8,12.9,12.9,12.9h4.1c7.1,0,12.9-5.8,12.9-12.9l0.1-5.9
				C105.7,94.4,105.6,94.2,105.5,94.1z"/>
			<g>
				<path class="st6" d="M88.5,114.1c-0.9,0-1.7-0.1-2.6-0.3v2.6c0,1.1,0.9,1.9,1.9,1.9h5.3c1.1,0,1.9-0.9,1.9-1.9v-2.6
					c-0.8,0.2-1.6,0.2-2.5,0.2H88.5z"/>
			</g>
			<g>
				<path class="st6" d="M74.5,101.1h-0.6c-1,0-1.8-0.8-1.8-1.8v-2.1c0-1,0.8-1.8,1.8-1.8h0.6V101.1z"/>
				<path class="st6" d="M106.5,95.4h0.6c1,0,1.8,0.8,1.8,1.8v2.1c0,1-0.8,1.8-1.8,1.8h-0.6V95.4z"/>
			</g>
			<path class="st6" d="M90.5,125.6c0.8,0,1.5,0.1,2.2,0.2V119h-4.4v6.8C89,125.6,89.7,125.6,90.5,125.6z"/>
		</g>
		<path class="st7" d="M80.8,130.6c3.1,0.8,6.4,1.2,9.7,1.2c3.4,0,6.6-0.4,9.7-1.2c-1.4-2.5-5.2-4.4-9.7-4.4
			C86,126.2,82.2,128,80.8,130.6z"/>
	</g>
</g>
</svg>
